<?xml version="1.0" encoding="utf-8"?>
<!-- Generator: Adobe Illustrator 16.0.0, SVG Export Plug-In . SVG Version: 6.00 Build 0)  -->
<!DOCTYPE svg PUBLIC "-//W3C//DTD SVG 1.1//EN" "http://www.w3.org/Graphics/SVG/1.1/DTD/svg11.dtd">
<svg version="1.1" id="Layer_1" xmlns="http://www.w3.org/2000/svg" xmlns:xlink="http://www.w3.org/1999/xlink" x="0px" y="0px"
	 width="1px" height="1px" viewBox="0 0 1 1" enable-background="new 0 0 1 1" xml:space="preserve">
<path fill="#FFFFFF" stroke="#000000" stroke-width="0.01" stroke-miterlimit="10" d="M0.081,0.274c0,0,0.046,0.037,0.05-0.04
	c0.005-0.078,0.058-0.144,0.122-0.131c0,0,0.204,0.054,0.26,0.009c0.056-0.044,0.215-0.08,0.27-0.053
	c0.056,0.028,0.182,0.08,0.165,0.253c-0.017,0.173-0.094,0.253-0.097,0.28s0.053,0.09,0.068,0.137
	c0.014,0.047,0.04,0.24-0.141,0.219c-0.181-0.021-0.473-0.071-0.56-0.175C0.131,0.669,0.084,0.488,0.081,0.419
	C0.077,0.35,0.014,0.243,0.081,0.274z"/>
</svg>
