<?xml version="1.0" encoding="UTF-8" standalone="no"?>
<svg
   xmlns:dc="http://purl.org/dc/elements/1.1/"
   xmlns:cc="http://creativecommons.org/ns#"
   xmlns:rdf="http://www.w3.org/1999/02/22-rdf-syntax-ns#"
   xmlns:svg="http://www.w3.org/2000/svg"
   xmlns="http://www.w3.org/2000/svg"
   xmlns:sodipodi="http://sodipodi.sourceforge.net/DTD/sodipodi-0.dtd"
   xmlns:inkscape="http://www.inkscape.org/namespaces/inkscape"
   width="6.0610676px"
   height="6.147368px"
   viewBox="0 0 1.6036575 1.6264911"
   version="1.1"
   id="svg1535"
   inkscape:version="1.0.1 (0767f8302a, 2020-10-17)"
   sodipodi:docname="terrazo.svg">
  <defs
     id="defs1529" />
  <sodipodi:namedview
     id="base"
     pagecolor="#ffffff"
     bordercolor="#666666"
     borderopacity="1.0"
     inkscape:pageopacity="0.0"
     inkscape:pageshadow="2"
     inkscape:zoom="44.8"
     inkscape:cx="6.1852832"
     inkscape:cy="6.7108111"
     inkscape:document-units="mm"
     inkscape:current-layer="layer1"
     inkscape:document-rotation="0"
     showgrid="false"
     inkscape:window-width="1515"
     inkscape:window-height="1199"
     inkscape:window-x="241"
     inkscape:window-y="120"
     inkscape:window-maximized="0"
     units="px" />
  <metadata
     id="metadata1532">
    <rdf:RDF>
      <cc:Work
         rdf:about="">
        <dc:format>image/svg+xml</dc:format>
        <dc:type
           rdf:resource="http://purl.org/dc/dcmitype/StillImage" />
        <dc:title></dc:title>
      </cc:Work>
    </rdf:RDF>
  </metadata>
  <g
     inkscape:label="Layer 1"
     inkscape:groupmode="layer"
     id="layer1"
     transform="translate(-57.98448,-52.22847)">
    <path
       style="fill:none;stroke:rgba(0,0,0,0.45);stroke-width:0.0079375;stroke-linecap:butt;stroke-linejoin:miter;stroke-miterlimit:4;stroke-dasharray:none;stroke-opacity:1"
       d="m 58.136913,52.25881 c -0.08744,0.05167 -0.196865,0.176021 -0.107279,0.177989 0.08959,0.002 0.14455,-0.03661 0.147355,-0.07767 0.0028,-0.04107 -0.04008,-0.100317 -0.04008,-0.100317 z"
       id="path2354" />
    <path
       style="fill:none;stroke:rgba(0,0,0,0.45);stroke-width:0.01;stroke-linecap:butt;stroke-linejoin:miter;stroke-miterlimit:4;stroke-dasharray:none;stroke-opacity:1"
       d="m 58.537177,52.417832 c -0.208265,-0.162608 -0.345301,-0.284283 -0.269713,-0.06749 0.07558,0.216791 0.06303,0.277986 0.155501,0.238953 0.09247,-0.03903 0.114214,-0.171454 0.114214,-0.171454 z"
       id="path2358" />
    <path
       style="fill:none;stroke:rgba(0,0,0,0.45);stroke-width:0.0079375;stroke-linecap:butt;stroke-linejoin:miter;stroke-miterlimit:4;stroke-dasharray:none;stroke-opacity:1"
       d="m 58.272964,52.641956 c -0.04652,-0.126371 -0.342726,-0.257616 -0.270096,-0.03965 0.07264,0.217961 0.08876,0.332125 0.212727,0.292862 0.123968,-0.03925 0.05737,-0.25321 0.05737,-0.25321 z"
       id="path2360" />
    <path
       style="fill:none;stroke:rgba(0,0,0,0.45);stroke-width:0.0079375;stroke-linecap:butt;stroke-linejoin:miter;stroke-miterlimit:4;stroke-dasharray:none;stroke-opacity:1"
       d="m 58.737246,52.615899 c -0.220031,0.02242 -0.472605,0.156137 -0.306239,0.280915 0.166366,0.124778 0.102615,-0.105837 0.186746,-0.08115 0.08413,0.02469 0.288088,0.08275 0.265689,-0.03951 -0.0224,-0.12226 -0.146196,-0.160259 -0.146196,-0.160259 z"
       id="path2362" />
    <path
       style="fill:none;stroke:rgba(0,0,0,0.45);stroke-width:0.0079375;stroke-linecap:butt;stroke-linejoin:miter;stroke-miterlimit:4;stroke-dasharray:none;stroke-opacity:1"
       d="m 58.116523,53.04801 c -0.137119,0.133662 -0.208294,0.414425 0.01753,0.305198 0.22582,-0.109227 0.380166,-0.148232 0.295041,-0.293529 -0.08512,-0.145296 -0.303329,-0.03615 -0.303329,-0.03615 z"
       id="path2364" />
    <path
       style="fill:none;stroke:rgba(0,0,0,0.45);stroke-width:0.0079375;stroke-linecap:butt;stroke-linejoin:miter;stroke-miterlimit:4;stroke-dasharray:none;stroke-opacity:1"
       d="m 59.083917,52.285718 c -0.412834,-0.0096 -0.668469,0.24197 -0.324726,0.19826 0.343744,-0.04371 0.324726,-0.19826 0.324726,-0.19826 z"
       id="path2366" />
    <path
       style="fill:none;stroke:rgba(0,0,0,0.45);stroke-width:0.0079375;stroke-linecap:butt;stroke-linejoin:miter;stroke-miterlimit:4;stroke-dasharray:none;stroke-opacity:1"
       d="m 58.839681,52.940244 c -0.401127,-0.08625 -0.183477,0.166282 -0.313604,0.320327 -0.130126,0.154044 -0.237927,0.550587 -0.06799,0.428968 0.169946,-0.121613 0.05973,-0.370435 0.190657,-0.362248 0.130931,0.0082 0.239011,-0.08578 0.165072,-0.183712 -0.07394,-0.09793 -0.05996,-0.106335 0.0081,-0.147282 0.06809,-0.04094 0.01771,-0.05605 0.01771,-0.05605 z"
       id="path2368" />
    <path
       style="fill:none;stroke:rgba(0,0,0,0.45);stroke-width:0.0079375;stroke-linecap:butt;stroke-linejoin:miter;stroke-miterlimit:4;stroke-dasharray:none;stroke-opacity:1"
       d="m 59.017211,52.711821 c -0.08637,-0.131543 -0.07793,-0.21438 0.0491,-0.195852 0.12702,0.01853 0.196531,0.119819 0.116173,0.125725 -0.08036,0.0059 -0.165268,0.07013 -0.165268,0.07013 z"
       id="path2370" />
    <path
       style="fill:none;stroke:rgba(0,0,0,0.45);stroke-width:0.0079375;stroke-linecap:butt;stroke-linejoin:miter;stroke-miterlimit:4;stroke-dasharray:none;stroke-opacity:1"
       d="m 58.997588,52.982791 c 0.02471,-0.217823 0.336985,-0.195015 0.314292,-0.08332 -0.02269,0.1117 -0.0893,0.359215 -0.18743,0.284043 -0.09813,-0.07517 -0.126862,-0.200728 -0.126862,-0.200728 z"
       id="path2372" />
    <path
       style="fill:none;stroke:rgba(0,0,0,0.45);stroke-width:0.0079375;stroke-linecap:butt;stroke-linejoin:miter;stroke-miterlimit:4;stroke-dasharray:none;stroke-opacity:1"
       d="m 58.042441,53.622559 c 0.0068,-0.19755 0.237302,-0.131133 0.235317,-0.01055 -0.002,0.120584 -0.0834,0.141373 -0.131402,0.13193 -0.04801,-0.0094 -0.112234,-0.06044 -0.103915,-0.12138 z"
       id="path2376" />
    <path
       style="fill:none;stroke:rgba(0,0,0,0.45);stroke-width:0.0079375;stroke-linecap:butt;stroke-linejoin:miter;stroke-miterlimit:4;stroke-dasharray:none;stroke-opacity:1"
       d="m 58.66141,53.509206 c 0.05871,-0.04219 0.08671,0.1647 0.233258,0.07663 0.146543,-0.08807 0.118184,-0.11926 -0.03454,-0.177485 -0.152729,-0.05823 -0.198713,0.100855 -0.198713,0.100855 z"
       id="path2378" />
    <path
       style="fill:none;stroke:rgba(0,0,0,0.45);stroke-width:0.0079375;stroke-linecap:butt;stroke-linejoin:miter;stroke-miterlimit:4;stroke-dasharray:none;stroke-opacity:1"
       d="m 59.516275,53.002194 c -0.183192,-0.295794 -0.404112,-0.802009 -0.304872,-0.752658 0.09921,0.04937 0.381671,0.506344 0.372538,0.613322 -0.0091,0.106978 -0.06766,0.13933 -0.06766,0.13933 z"
       id="path2380" />
    <path
       style="fill:none;stroke:rgba(0,0,0,0.45);stroke-width:0.0079375;stroke-linecap:butt;stroke-linejoin:miter;stroke-miterlimit:4;stroke-dasharray:none;stroke-opacity:1"
       d="m 58.546182,53.651228 c -0.04442,0.0988 0.132314,0.176548 0.309077,0.161812 0.176766,-0.0147 0.597472,0.10732 0.629224,-0.02245 0.03176,-0.12978 -0.104171,-0.13427 -0.240114,-0.115601 -0.135934,0.0187 -0.375836,0.03599 -0.46737,-0.006 -0.09154,-0.04203 -0.230815,-0.01771 -0.230815,-0.01771 z"
       id="path2382" />
    <path
       style="fill:none;stroke:rgba(0,0,0,0.45);stroke-width:0.0079375;stroke-linecap:butt;stroke-linejoin:miter;stroke-miterlimit:4;stroke-dasharray:none;stroke-opacity:1"
       d="m 59.13393,53.444652 c -0.0083,-0.217558 0.251595,-0.156938 0.284134,-0.03771 0.03254,0.119224 -0.01785,0.21631 -0.106834,0.21631 -0.08898,0 -0.161512,-0.104368 -0.1773,-0.178597 z"
       id="path2384" />
  </g>
</svg>
