<?xml version="1.0" encoding="UTF-8" standalone="no"?>
<svg
   xmlns:dc="http://purl.org/dc/elements/1.1/"
   xmlns:cc="http://creativecommons.org/ns#"
   xmlns:rdf="http://www.w3.org/1999/02/22-rdf-syntax-ns#"
   xmlns:svg="http://www.w3.org/2000/svg"
   xmlns="http://www.w3.org/2000/svg"
   xmlns:sodipodi="http://sodipodi.sourceforge.net/DTD/sodipodi-0.dtd"
   xmlns:inkscape="http://www.inkscape.org/namespaces/inkscape"
   width="6.0610676"
   height="6.147368"
   viewBox="0 0 1.6036575 1.6264911"
   version="1.1"
   id="svg1535"
   inkscape:version="1.0.1 (0767f8302a, 2020-10-17)"
   sodipodi:docname="terrazo3.svg">
  <defs
     id="defs1529" />
  <sodipodi:namedview
     id="base"
     pagecolor="#ffffff"
     bordercolor="#666666"
     borderopacity="1.0"
     inkscape:pageopacity="0.0"
     inkscape:pageshadow="2"
     inkscape:zoom="89.6"
     inkscape:cx="2.7609429"
     inkscape:cy="3.5546806"
     inkscape:document-units="mm"
     inkscape:current-layer="layer1"
     inkscape:document-rotation="0"
     showgrid="false"
     inkscape:window-width="1515"
     inkscape:window-height="1199"
     inkscape:window-x="241"
     inkscape:window-y="120"
     inkscape:window-maximized="0"
     units="px" />
  <metadata
     id="metadata1532">
    <rdf:RDF>
      <cc:Work
         rdf:about="">
        <dc:format>image/svg+xml</dc:format>
        <dc:type
           rdf:resource="http://purl.org/dc/dcmitype/StillImage" />
        <dc:title></dc:title>
      </cc:Work>
    </rdf:RDF>
  </metadata>
  <g
     inkscape:label="Layer 1"
     inkscape:groupmode="layer"
     id="layer1"
     transform="translate(-57.98448,-52.22847)">
    <path
       style="fill:none;stroke:rgba(0,0,0,0.5);stroke-width:0.0079375;stroke-linecap:butt;stroke-linejoin:miter;stroke-miterlimit:4;stroke-dasharray:none;stroke-opacity:1"
       d="m 58.317358,52.573778 c -0.04652,-0.126371 -0.342726,-0.257616 -0.270096,-0.03965 0.07264,0.217961 0.08876,0.332125 0.212727,0.292862 0.123968,-0.03925 0.05737,-0.25321 0.05737,-0.25321 z"
       id="path2360" />
    <path
       style="fill:none;stroke:rgba(0,0,0,0.5);stroke-width:0.0079375;stroke-linecap:butt;stroke-linejoin:miter;stroke-miterlimit:4;stroke-dasharray:none;stroke-opacity:1"
       d="m 58.18187,53.068592 c -0.137119,0.133662 -0.208294,0.414425 0.01753,0.305198 0.22582,-0.109227 0.380166,-0.148232 0.295041,-0.293529 -0.08512,-0.145296 -0.303329,-0.03615 -0.303329,-0.03615 z"
       id="path2364" />
    <path
       style="fill:none;stroke:rgba(0,0,0,0.5);stroke-width:0.0079375;stroke-linecap:butt;stroke-linejoin:miter;stroke-miterlimit:4;stroke-dasharray:none;stroke-opacity:1"
       d="m 59.083917,52.285718 c -0.412834,-0.0096 -0.668469,0.24197 -0.324726,0.19826 0.343744,-0.04371 0.324726,-0.19826 0.324726,-0.19826 z"
       id="path2366" />
    <path
       style="fill:none;stroke:rgba(0,0,0,0.5);stroke-width:0.0079375;stroke-linecap:butt;stroke-linejoin:miter;stroke-miterlimit:4;stroke-dasharray:none;stroke-opacity:1"
       d="m 58.908318,52.997503 c 0.02471,-0.217823 0.336985,-0.195015 0.314292,-0.08332 -0.02269,0.1117 -0.0893,0.359215 -0.18743,0.284043 -0.09813,-0.07517 -0.126862,-0.200728 -0.126862,-0.200728 z"
       id="path2372" />
    <path
       style="fill:none;stroke:rgba(0,0,0,0.5);stroke-width:0.0079375;stroke-linecap:butt;stroke-linejoin:miter;stroke-miterlimit:4;stroke-dasharray:none;stroke-opacity:1"
       d="m 58.042441,53.622559 c 0.0068,-0.19755 0.237302,-0.131133 0.235317,-0.01055 -0.002,0.120584 -0.0834,0.141373 -0.131402,0.13193 -0.04801,-0.0094 -0.112234,-0.06044 -0.103915,-0.12138 z"
       id="path2376" />
    <path
       style="fill:none;stroke:rgba(0,0,0,0.5);stroke-width:0.0079375;stroke-linecap:butt;stroke-linejoin:miter;stroke-miterlimit:4;stroke-dasharray:none;stroke-opacity:1"
       d="m 58.634155,53.347635 c 0.02091,0.0427 0.06544,0.170018 0.21199,0.08195 0.146543,-0.08807 0.118184,-0.11926 -0.03454,-0.177485 -0.152729,-0.05823 -0.179481,0.0643 -0.179481,0.0643 z"
       id="path2378"
       sodipodi:nodetypes="ccccc" />
    <path
       style="fill:none;stroke:rgba(0,0,0,0.5);stroke-width:0.0079375;stroke-linecap:butt;stroke-linejoin:miter;stroke-miterlimit:4;stroke-dasharray:none;stroke-opacity:1"
       d="m 59.234077,53.488688 c -0.0083,-0.217558 0.251595,-0.156938 0.284134,-0.03771 0.03254,0.119224 -0.01785,0.21631 -0.106834,0.21631 -0.08898,0 -0.161512,-0.104368 -0.1773,-0.178597 z"
       id="path2384" />
    <path
       style="fill:none;stroke:rgba(0,0,0,0.5);stroke-width:0.0079375;stroke-linecap:butt;stroke-linejoin:miter;stroke-opacity:1;stroke-miterlimit:4;stroke-dasharray:none"
       d="m 59.229644,52.455678 c 0.01397,-0.09067 0.115447,-0.212716 0.185178,-0.140372 0.06973,0.07234 0.09272,0.19197 -0.0029,0.20707 -0.0956,0.0151 -0.196327,-0.04361 -0.182298,-0.0667 z"
       id="path2404" />
    <path
       style="fill:none;stroke:rgba(0,0,0,0.5);stroke-width:0.0079375;stroke-linecap:butt;stroke-linejoin:miter;stroke-miterlimit:4;stroke-dasharray:none;stroke-opacity:1"
       d="m 59.429313,52.959699 c -0.254707,-0.233367 -0.07757,-0.444931 0.0068,-0.314091 0.08435,0.130838 0.160722,0.171871 0.09704,0.239477 -0.06372,0.06757 -0.103818,0.07462 -0.103818,0.07462 z"
       id="path2406" />
    <path
       style="fill:none;stroke:rgba(0,0,0,0.5);stroke-width:0.0079375;stroke-linecap:butt;stroke-linejoin:miter;stroke-miterlimit:4;stroke-dasharray:none;stroke-opacity:1"
       d="m 58.927753,53.704849 c -0.04127,-0.155632 0.21366,-0.211554 0.248547,-0.120197 0.03489,0.09136 0.07643,0.218365 -0.02697,0.224197 -0.103396,0.0058 -0.236637,-0.03082 -0.221577,-0.104 z"
       id="path2408" />
    <path
       style="fill:none;stroke:rgba(0,0,0,0.5);stroke-width:0.0079375;stroke-linecap:butt;stroke-linejoin:miter;stroke-miterlimit:4;stroke-dasharray:none;stroke-opacity:1"
       d="m 58.488516,52.882867 c -0.0059,-0.167854 0.143347,-0.07413 0.143347,-0.03987 0,0.03427 -0.0071,0.16501 -0.05455,0.143863 -0.04744,-0.02115 -0.08879,-0.103996 -0.08879,-0.103996 z"
       id="path2448" />
    <path
       style="fill:none;stroke:rgba(0,0,0,0.5);stroke-width:0.0079375;stroke-linecap:butt;stroke-linejoin:miter;stroke-miterlimit:4;stroke-dasharray:none;stroke-opacity:1"
       d="m 58.417603,53.691246 c 0.01758,-0.169216 0.330515,-0.105722 0.282098,-0.01329 -0.04842,0.09244 -0.154882,0.133135 -0.214692,0.08653 -0.05981,-0.04661 -0.06741,-0.07325 -0.06741,-0.07325 z"
       id="path2450" />
  </g>
</svg>
