<?xml version="1.0" encoding="UTF-8" standalone="no"?>
<svg
   xmlns:dc="http://purl.org/dc/elements/1.1/"
   xmlns:cc="http://creativecommons.org/ns#"
   xmlns:rdf="http://www.w3.org/1999/02/22-rdf-syntax-ns#"
   xmlns:svg="http://www.w3.org/2000/svg"
   xmlns="http://www.w3.org/2000/svg"
   xmlns:sodipodi="http://sodipodi.sourceforge.net/DTD/sodipodi-0.dtd"
   xmlns:inkscape="http://www.inkscape.org/namespaces/inkscape"
   width="6.0610676"
   height="6.147368"
   viewBox="0 0 1.6036575 1.6264911"
   version="1.1"
   id="svg1535"
   inkscape:version="1.0.1 (0767f8302a, 2020-10-17)"
   sodipodi:docname="terrazo2.svg">
  <defs
     id="defs1529" />
  <sodipodi:namedview
     id="base"
     pagecolor="#ffffff"
     bordercolor="#666666"
     borderopacity="1.0"
     inkscape:pageopacity="0.0"
     inkscape:pageshadow="2"
     inkscape:zoom="89.6"
     inkscape:cx="2.7609429"
     inkscape:cy="3.5546806"
     inkscape:document-units="mm"
     inkscape:current-layer="layer1"
     inkscape:document-rotation="0"
     showgrid="false"
     inkscape:window-width="1515"
     inkscape:window-height="1199"
     inkscape:window-x="241"
     inkscape:window-y="120"
     inkscape:window-maximized="0"
     units="px" />
  <metadata
     id="metadata1532">
    <rdf:RDF>
      <cc:Work
         rdf:about="">
        <dc:format>image/svg+xml</dc:format>
        <dc:type
           rdf:resource="http://purl.org/dc/dcmitype/StillImage" />
        <dc:title></dc:title>
      </cc:Work>
    </rdf:RDF>
  </metadata>
  <g
     inkscape:label="Layer 1"
     inkscape:groupmode="layer"
     id="layer1"
     transform="translate(-57.98448,-52.22847)">
    <path
       style="fill:none;stroke:rgba(0,0,0,0.25);stroke-width:0.0079375;stroke-linecap:butt;stroke-linejoin:miter;stroke-miterlimit:4;stroke-dasharray:none;stroke-opacity:1"
       d="m 58.181465,52.266516 c -0.08744,0.05167 -0.196865,0.176021 -0.107279,0.177989 0.08959,0.002 0.14455,-0.03661 0.147355,-0.07767 0.0028,-0.04107 -0.04008,-0.100317 -0.04008,-0.100317 z"
       id="path2354" />
    <path
       style="fill:none;stroke:rgba(0,0,0,0.25);stroke-width:0.01;stroke-linecap:butt;stroke-linejoin:miter;stroke-miterlimit:4;stroke-dasharray:none;stroke-opacity:1"
       d="m 58.537177,52.417832 c -0.208265,-0.162608 -0.345301,-0.284283 -0.269713,-0.06749 0.07558,0.216791 0.06303,0.277986 0.155501,0.238953 0.09247,-0.03903 0.114214,-0.171454 0.114214,-0.171454 z"
       id="path2358" />
    <path
       style="fill:none;stroke:rgba(0,0,0,0.25);stroke-width:0.0079375;stroke-linecap:butt;stroke-linejoin:miter;stroke-miterlimit:4;stroke-dasharray:none;stroke-opacity:1"
       d="m 58.272964,52.641956 c -0.04652,-0.126371 -0.342726,-0.257616 -0.270096,-0.03965 0.07264,0.217961 0.08876,0.332125 0.212727,0.292862 0.123968,-0.03925 0.05737,-0.25321 0.05737,-0.25321 z"
       id="path2360" />
    <path
       style="fill:none;stroke:rgba(0,0,0,0.25);stroke-width:0.0079375;stroke-linecap:butt;stroke-linejoin:miter;stroke-miterlimit:4;stroke-dasharray:none;stroke-opacity:1"
       d="m 58.737246,52.615899 c -0.220031,0.02242 -0.472605,0.156137 -0.306239,0.280915 0.166366,0.124778 0.102615,-0.105837 0.186746,-0.08115 0.08413,0.02469 0.288088,0.08275 0.265689,-0.03951 -0.0224,-0.12226 -0.146196,-0.160259 -0.146196,-0.160259 z"
       id="path2362" />
    <path
       style="fill:none;stroke:rgba(0,0,0,0.25);stroke-width:0.0079375;stroke-linecap:butt;stroke-linejoin:miter;stroke-miterlimit:4;stroke-dasharray:none;stroke-opacity:1"
       d="m 58.116523,53.04801 c -0.137119,0.133662 -0.208294,0.414425 0.01753,0.305198 0.22582,-0.109227 0.380166,-0.148232 0.295041,-0.293529 -0.08512,-0.145296 -0.303329,-0.03615 -0.303329,-0.03615 z"
       id="path2364" />
    <path
       style="fill:none;stroke:rgba(0,0,0,0.25);stroke-width:0.0079375;stroke-linecap:butt;stroke-linejoin:miter;stroke-miterlimit:4;stroke-dasharray:none;stroke-opacity:1"
       d="m 59.083917,52.285718 c -0.412834,-0.0096 -0.668469,0.24197 -0.324726,0.19826 0.343744,-0.04371 0.324726,-0.19826 0.324726,-0.19826 z"
       id="path2366" />
    <path
       style="fill:none;stroke:rgba(0,0,0,0.25);stroke-width:0.0079375;stroke-linecap:butt;stroke-linejoin:miter;stroke-miterlimit:4;stroke-dasharray:none;stroke-opacity:1"
       d="m 59.017211,52.711821 c -0.08637,-0.131543 -0.07793,-0.21438 0.0491,-0.195852 0.12702,0.01853 0.196531,0.119819 0.116173,0.125725 -0.08036,0.0059 -0.165268,0.07013 -0.165268,0.07013 z"
       id="path2370" />
    <path
       style="fill:none;stroke:rgba(0,0,0,0.25);stroke-width:0.0079375;stroke-linecap:butt;stroke-linejoin:miter;stroke-miterlimit:4;stroke-dasharray:none;stroke-opacity:1"
       d="m 58.997588,52.982791 c 0.02471,-0.217823 0.336985,-0.195015 0.314292,-0.08332 -0.02269,0.1117 -0.0893,0.359215 -0.18743,0.284043 -0.09813,-0.07517 -0.126862,-0.200728 -0.126862,-0.200728 z"
       id="path2372" />
    <path
       style="fill:none;stroke:rgba(0,0,0,0.25);stroke-width:0.0079375;stroke-linecap:butt;stroke-linejoin:miter;stroke-miterlimit:4;stroke-dasharray:none;stroke-opacity:1"
       d="m 58.042441,53.622559 c 0.0068,-0.19755 0.237302,-0.131133 0.235317,-0.01055 -0.002,0.120584 -0.0834,0.141373 -0.131402,0.13193 -0.04801,-0.0094 -0.112234,-0.06044 -0.103915,-0.12138 z"
       id="path2376" />
    <path
       style="fill:none;stroke:rgba(0,0,0,0.25);stroke-width:0.0079375;stroke-linecap:butt;stroke-linejoin:miter;stroke-miterlimit:4;stroke-dasharray:none;stroke-opacity:1"
       d="m 58.661057,53.489191 c 0.02091,0.0427 0.06544,0.170018 0.21199,0.08195 0.146543,-0.08807 0.118184,-0.11926 -0.03454,-0.177485 -0.152729,-0.05823 -0.179481,0.0643 -0.179481,0.0643 z"
       id="path2378"
       sodipodi:nodetypes="ccccc" />
    <path
       style="fill:none;stroke:rgba(0,0,0,0.25);stroke-width:0.0079375;stroke-linecap:butt;stroke-linejoin:miter;stroke-miterlimit:4;stroke-dasharray:none;stroke-opacity:1"
       d="m 59.234077,53.488688 c -0.0083,-0.217558 0.251595,-0.156938 0.284134,-0.03771 0.03254,0.119224 -0.01785,0.21631 -0.106834,0.21631 -0.08898,0 -0.161512,-0.104368 -0.1773,-0.178597 z"
       id="path2384" />
    <path
       style="fill:none;stroke:rgba(0,0,0,0.25);stroke-width:0.0079375;stroke-linecap:butt;stroke-linejoin:miter;stroke-opacity:1;stroke-miterlimit:4;stroke-dasharray:none"
       d="m 59.229644,52.455678 c 0.01397,-0.09067 0.115447,-0.212716 0.185178,-0.140372 0.06973,0.07234 0.09272,0.19197 -0.0029,0.20707 -0.0956,0.0151 -0.196327,-0.04361 -0.182298,-0.0667 z"
       id="path2404" />
    <path
       style="fill:none;stroke:rgba(0,0,0,0.25);stroke-width:0.0079375;stroke-linecap:butt;stroke-linejoin:miter;stroke-miterlimit:4;stroke-dasharray:none;stroke-opacity:1"
       d="m 59.429313,52.959699 c -0.254707,-0.233367 -0.07757,-0.444931 0.0068,-0.314091 0.08435,0.130838 0.160722,0.171871 0.09704,0.239477 -0.06372,0.06757 -0.103818,0.07462 -0.103818,0.07462 z"
       id="path2406" />
    <path
       style="fill:none;stroke:rgba(0,0,0,0.25);stroke-width:0.0079375;stroke-linecap:butt;stroke-linejoin:miter;stroke-miterlimit:4;stroke-dasharray:none;stroke-opacity:1"
       d="m 58.927753,53.704849 c -0.04127,-0.155632 0.21366,-0.211554 0.248547,-0.120197 0.03489,0.09136 0.07643,0.218365 -0.02697,0.224197 -0.103396,0.0058 -0.236637,-0.03082 -0.221577,-0.104 z"
       id="path2408" />
    <path
       style="fill:none;stroke:rgba(0,0,0,0.25);stroke-width:0.0079375;stroke-linecap:butt;stroke-linejoin:miter;stroke-miterlimit:4;stroke-dasharray:none;stroke-opacity:1"
       d="m 58.633827,52.903586 c 0.02289,0.09895 0.108445,0.240788 0.137342,0.155968 0.02893,-0.08481 0.0087,-0.148861 -0.02961,-0.16392 -0.03831,-0.01506 -0.107734,0.008 -0.107734,0.008 z"
       id="path2354-3" />
    <path
       style="fill:none;stroke:rgba(0,0,0,0.25);stroke-width:0.0079375;stroke-linecap:butt;stroke-linejoin:miter;stroke-miterlimit:4;stroke-dasharray:none;stroke-opacity:1"
       d="m 59.477477,53.193008 c -0.02344,-0.09882 -0.109782,-0.240181 -0.138207,-0.155201 -0.02846,0.08497 -0.0079,0.148906 0.03052,0.163752 0.0384,0.01484 0.107688,-0.0086 0.107688,-0.0086 z"
       id="path2354-6" />
    <path
       style="fill:none;stroke:rgba(0,0,0,0.25);stroke-width:0.0079375;stroke-linecap:butt;stroke-linejoin:miter;stroke-miterlimit:4;stroke-dasharray:none;stroke-opacity:1"
       d="m 58.311963,53.319276 c 0.08131,-0.04249 0.23975,-0.03311 0.222818,0.06593 -0.01693,0.09904 -0.09965,0.188466 -0.16849,0.120405 -0.06883,-0.06804 -0.08125,-0.183969 -0.05434,-0.186357 z"
       id="path2404-7" />
    <path
       style="fill:none;stroke:rgba(0,0,0,0.25);stroke-width:0.0079375;stroke-linecap:butt;stroke-linejoin:miter;stroke-miterlimit:4;stroke-dasharray:none;stroke-opacity:1"
       d="m 58.78851,53.068129 c 0.17257,-0.144195 0.172818,0.08539 0.267746,0.114515 0.09492,0.02915 -0.02499,0.235921 -0.124273,0.184928 -0.09927,-0.051 -0.134669,-0.192225 -0.103137,-0.217939 0.03153,-0.02571 -0.04034,-0.08151 -0.04034,-0.08151 z"
       id="path2446" />
    <path
       style="fill:none;stroke:rgba(0,0,0,0.25);stroke-width:0.0079375;stroke-linecap:butt;stroke-linejoin:miter;stroke-miterlimit:4;stroke-dasharray:none;stroke-opacity:1"
       d="m 58.520318,53.168784 c -0.0059,-0.167854 0.143347,-0.07413 0.143347,-0.03987 0,0.03427 -0.0071,0.16501 -0.05455,0.143863 -0.04744,-0.02115 -0.08879,-0.103996 -0.08879,-0.103996 z"
       id="path2448" />
    <path
       style="fill:none;stroke:rgba(0,0,0,0.25);stroke-width:0.0079375;stroke-linecap:butt;stroke-linejoin:miter;stroke-miterlimit:4;stroke-dasharray:none;stroke-opacity:1"
       d="m 58.417603,53.691246 c 0.01758,-0.169216 0.330515,-0.105722 0.282098,-0.01329 -0.04842,0.09244 -0.154882,0.133135 -0.214692,0.08653 -0.05981,-0.04661 -0.06741,-0.07325 -0.06741,-0.07325 z"
       id="path2450" />
  </g>
</svg>
