<?xml version="1.0" encoding="UTF-8" standalone="no"?>
<svg
   xmlns:dc="http://purl.org/dc/elements/1.1/"
   xmlns:cc="http://creativecommons.org/ns#"
   xmlns:rdf="http://www.w3.org/1999/02/22-rdf-syntax-ns#"
   xmlns:svg="http://www.w3.org/2000/svg"
   xmlns="http://www.w3.org/2000/svg"
   xmlns:sodipodi="http://sodipodi.sourceforge.net/DTD/sodipodi-0.dtd"
   xmlns:inkscape="http://www.inkscape.org/namespaces/inkscape"
   width="1024mm"
   height="768mm"
   viewBox="0 0 1024 768"
   version="1.1"
   id="svg286"
   sodipodi:docname="leaf-05.svg"
   inkscape:version="1.0.1 (0767f8302a, 2020-10-17)">
  <defs
     id="defs280" />
  <sodipodi:namedview
     id="base"
     pagecolor="#ffffff"
     bordercolor="#666666"
     borderopacity="1.0"
     inkscape:pageopacity="0.0"
     inkscape:pageshadow="2"
     inkscape:zoom="0.175"
     inkscape:cx="1199.0282"
     inkscape:cy="1659.8661"
     inkscape:document-units="mm"
     inkscape:current-layer="layer5"
     inkscape:document-rotation="0"
     showgrid="false"
     inkscape:window-width="2022"
     inkscape:window-height="1253"
     inkscape:window-x="38"
     inkscape:window-y="65"
     inkscape:window-maximized="0" />
  <metadata
     id="metadata283">
    <rdf:RDF>
      <cc:Work
         rdf:about="">
        <dc:format>image/svg+xml</dc:format>
        <dc:type
           rdf:resource="http://purl.org/dc/dcmitype/StillImage" />
        <dc:title></dc:title>
      </cc:Work>
    </rdf:RDF>
  </metadata>
  <g
     inkscape:groupmode="layer"
     id="layer5"
     inkscape:label="Layer 2"
     style="display:inline">
    <path
       id="rect295"
       style="fill:#000000;stroke-width:0.992054"
       d="M 0 0 L 0 2902.6777 L 3870.2363 2902.6777 L 3870.2363 0 L 0 0 z M 2687.4395 722.8125 C 2736.0836 722.62129 2787.8207 725.58172 2812.0684 731.9707 C 2847.3377 741.26381 2858.359 741.82162 2879.5156 742.74023 C 2900.6722 743.65855 2948.0178 769.58503 2959.002 781.62891 C 2969.9861 793.67282 2973.9896 815.7988 2977.9414 858.78125 C 2981.8931 901.76385 2969.1846 932.30916 2949.0664 965.25977 C 2928.9482 998.21037 2893.0442 1040.2732 2884.166 1060.459 C 2875.2879 1080.6448 2805.0815 1139.0456 2783.1992 1146.9082 C 2761.3169 1154.771 2763.5256 1165.4796 2753.5254 1172.9609 C 2743.5252 1180.4421 2668.4127 1222.7697 2652.4609 1235.8711 C 2636.5093 1248.9725 2580.4531 1276.6273 2572.6562 1285.707 C 2564.8592 1294.7867 2480.6656 1360.1193 2441.8047 1402.1484 C 2402.9439 1444.1775 2343.3677 1453.034 2315.0645 1466.0449 C 2286.7613 1479.056 2271.2411 1491.8713 2234.4062 1496.3105 C 2197.5712 1500.7498 2094.8253 1501.3 2020.0449 1539.248 C 2020.0449 1539.248 1989.6904 1550.3172 1980.918 1546.7559 C 1972.1455 1543.1948 1969.1367 1553.0273 1969.1367 1556.0156 C 1969.1367 1559.0041 1968.8488 1552.7833 1966.3223 1552.1055 C 1963.7953 1551.427 1962.27 1556.326 1963.0488 1560.8457 C 1963.8273 1565.3653 1959.9549 1559.804 1956.7734 1561.0977 C 1953.5918 1562.3927 1949.9152 1564.0137 1952.4141 1568.6113 C 1954.9129 1573.2091 1944.2533 1567.2961 1941.6484 1567.9922 C 1939.0437 1568.6883 1933.6155 1572.6361 1937.4375 1580.5742 C 1941.2594 1588.5125 1939.4076 1582.4828 1920.6816 1600.2695 C 1901.9557 1618.0563 1850.3061 1663.3705 1836.123 1687.082 C 1821.9401 1710.7937 1783.2889 1729.8937 1771.873 1747.1465 C 1760.4571 1764.3993 1711.5574 1811.6836 1663.3691 1832.8086 C 1615.181 1853.9337 1611.3872 1852.6019 1590.4688 1860.4863 C 1569.5502 1868.3707 1429.4661 1872.0301 1380.0625 1884.2852 C 1330.659 1896.54 1286.0064 1905.3422 1227.8184 1932.2422 C 1169.6304 1959.1422 1149.8064 1947.1478 1133.125 1942.1914 C 1116.4436 1937.2352 1099.9639 1925.0178 1090.9492 1888.8145 C 1090.9492 1888.8145 954.04468 1964.0606 939.80859 1976.9492 C 925.57247 1989.8379 861.33313 2029.6479 847.48438 2043.9395 C 833.63562 2058.2309 801.67394 2073.239 795.8125 2072.8047 C 789.95117 2072.3706 785.39648 2071.7813 785.39648 2071.7812 C 785.39648 2071.7812 781.88647 2038.5617 788.02344 2035.2715 C 794.16026 2031.9811 957.11697 1937.0918 986.39062 1920.8691 C 1015.6643 1904.6464 1086.9397 1862.57 1087.668 1858.9941 C 1088.3964 1855.4183 1070.2558 1816.7383 1063.6816 1807.0039 C 1057.1076 1797.2696 1035.0544 1755.8337 1043.5469 1686.5508 C 1052.0394 1617.268 1071.6378 1562.6756 1088.9785 1526.0039 C 1106.3192 1489.3324 1161.8293 1431.3287 1167.7188 1423.1367 C 1173.6083 1414.9447 1217.8127 1361.151 1265.0996 1329.5078 C 1312.3865 1297.8646 1359.1635 1280.5517 1370.4102 1273.3555 C 1381.6569 1266.159 1435.6657 1243.9914 1472.0391 1202.2695 C 1508.4126 1160.5479 1546.9752 1117.4593 1565.8691 1102.2988 C 1584.7629 1087.1385 1601.655 1067.843 1616.6035 1050.5254 C 1631.5522 1033.2079 1676.0965 1006.9069 1691.2715 994.66992 C 1706.4467 982.43291 1797.1494 929.56101 1820.7422 922.62891 C 1844.3348 915.69695 1856.7481 905.10867 1866.1348 900.02539 C 1875.5216 894.94215 1923.3156 872.04518 1946.1836 871.75586 C 1969.0517 871.46597 1988.1303 851.62091 1996.7246 847.38281 C 2005.319 843.14475 2046.3587 816.87545 2065.2031 812.93359 C 2084.0476 808.99177 2181.9496 782.12203 2204.6641 773.59375 C 2227.3785 765.06562 2256.8303 763.41107 2306.0977 760.19727 C 2355.3651 756.98361 2402.5672 746.55221 2432.8027 741.19727 C 2463.0383 735.8422 2568.4225 729.36006 2625.8965 725 C 2643.8572 723.63747 2665.3285 722.89941 2687.4395 722.8125 z "
       transform="scale(0.26458333)" />
    <path
       style="display:inline;fill:none;stroke:#000000;stroke-width:0.264583px;stroke-linecap:butt;stroke-linejoin:miter;stroke-opacity:1"
       d="m 311.4167,225.5842 c 0,0 -1.20375,-0.071 -1.18745,-1.30278 0,0 0.34825,-0.55824 0.50475,-0.61965 0.15649,-0.0614 0.45213,-0.3176 0.49344,-0.47169 0.0413,-0.15409 0.095,-0.35435 0.18462,-0.42844 0.0897,-0.0741 0.64738,-1.14901 0.77108,-1.3426 0.12371,-0.1936 0.17077,-0.17038 0.27891,-0.66106 0.10815,-0.49068 0.25282,-0.62187 0.29466,-1.01503 0.0419,-0.39315 0.37245,-1.1159 0.41504,-1.73999 0,0 0.26606,-1.15896 0.29594,-1.76594 0.0299,-0.60699 0.56883,-3.71183 0.52439,-4.99915 0,0 0.39765,-7.19011 0.45722,-11.85844 0.0596,-4.66834 0.3397,-26.49246 -0.33393,-33.91846 0,0 -0.73243,-13.23065 -1.149,-16.59631 -0.41658,-3.36566 -2.28976,-6.19981 -5.55011,-7.74578 -3.26036,-1.54597 -2.50586,-1.28479 -2.92753,-1.58957 -0.42167,-0.30478 -1.3772,-0.68239 -2.76654,-0.86608 -1.38934,-0.18369 -1.4304,-0.77518 -3.2743,-0.64758 0,0 -3.52692,-0.1052 -4.53686,-0.2444 -1.00995,-0.13921 -1.4289,0.2118 -1.8841,0.2118 -0.45521,0 -3.24105,-0.0546 -4.00358,0.18979 -0.76253,0.2444 -2.08035,0.34587 -2.44012,0.34587 -0.35977,0 -2.01469,0.44243 -2.70966,0.68549 -0.69497,0.24306 -1.10149,0.0133 -3.20213,0.53343 0,0 -1.64142,0.23869 -2.69129,0.58166 -1.04988,0.34296 -3.16687,0.51823 -4.40816,0.74649 -1.24129,0.22826 -3.12481,0.1081 -3.72322,0.15049 -0.5984,0.0424 -4.01356,0.51393 -4.36099,0.41555 -0.34743,-0.0984 -2.6919,-0.30137 -3.74688,-1.21794 0,0 -0.97027,-1.57035 -1.54891,-2.24029 0,0 -0.63623,-1.04068 -0.62818,-1.73713 0.008,-0.69646 0.38452,-3.95313 0.27317,-4.20206 0,0 0.15084,-1.03415 -0.81173,-3.10765 0,0 -0.0974,-0.46403 -0.0274,-1.08349 0.07,-0.61948 -0.11415,-2.28337 1.03634,-3.05706 1.1505,-0.77369 2.21046,-0.79548 3.11739,-1.86887 0,0 1.24874,-0.62867 1.71709,-1.21376 0.46835,-0.5851 0.0353,-2.07087 -0.65279,-2.62476 -0.68813,-0.55389 0.0498,-0.48912 -0.56577,-1.44613 -0.61562,-0.957 -0.52359,-1.78512 -0.62225,-3.60066 -0.0987,-1.81554 0.2105,-2.27836 1.6873,-3.84611 1.47679,-1.56774 1.92962,-2.27184 2.01453,-2.56746 0.0849,-0.29562 0.44879,-0.59564 0.70724,-1.03785 0.25845,-0.44221 1.68557,-0.5216 2.70714,-1.3211 1.02156,-0.7995 1.71576,-2.39616 2.08116,-3.19204 0.36541,-0.79588 1.4649,-1.39559 2.41231,-3.032257 0.94741,-1.63667 1.30403,-3.02497 1.84193,-3.32043 0.53791,-0.29546 2.43594,-0.74053 3.00013,-1.133 0.56419,-0.39247 1.29788,-0.70581 1.39535,-0.85432 0.0975,-0.14851 0.0178,-0.38967 0.95657,-0.77145 0.93879,-0.38177 2.37449,-1.9544 2.80559,-2.67762 0.4311,-0.72322 0.41366,-0.91989 1.89735,-1.32098 1.48369,-0.4011 2.21336,-0.46869 2.97445,-0.8402 0,0 0.48531,0.0658 0.81418,-0.0454 0.32888,-0.11121 0.46649,-0.21272 0.58649,-0.21272 0.12,0 0.59475,0.13377 0.87207,-0.001 0.27731,-0.13471 0.33015,0.0771 0.90599,-0.1134 0.57583,-0.19051 1.27183,0.0593 1.54596,-0.0652 0.27413,-0.12446 0.82249,0.083 1.36564,0.0403 0,0 0.61956,0.61662 1.08631,0.42158 0.46675,-0.19504 1.02215,-0.66975 2.05774,-1.60857 1.0356,-0.93883 0.98019,-0.24998 2.68603,-1.33325 0,0 0.51596,-0.11919 1.19858,-0.35389 0.68261,-0.2347 1.15582,-0.62898 1.5479,-0.64913 0.39208,-0.0201 1.18644,-0.008 1.45316,-0.23517 0.26672,-0.2273 0.18393,0.11721 1.15921,-0.23182 0.97529,-0.34903 1.78729,0.61706 1.80633,0.85786 0.019,0.24079 0.33131,0.39295 0.50187,1.40683 0.17057,1.01386 0.12773,1.99044 0.79556,2.15876 0.66783,0.16831 0.8277,0.12691 1.27322,-1.33781 0,0 0.95251,-1.16709 1.3613,-2.00644 0.40878,-0.83935 2.47124,-1.33274 3.34646,-1.93997 0.87523,-0.60724 2.24768,-0.48321 2.85604,-0.43867 0.60836,0.0445 1.33602,0.77945 1.69768,0.77293 0.36167,-0.007 1.18981,1.25369 1.67323,1.22435 0.48343,-0.0293 1.09291,0.29472 2.73078,-0.70802 1.63788,-1.00273 2.10172,0.27117 2.67268,0.27117 0,0 0.75652,0.48258 1.82756,0.3887 0,0 0.54756,0.41158 0.96162,0.28473 0.41405,-0.12685 2.25152,0.95925 2.4712,1.03112 0.21967,0.0719 1.11323,0.86349 1.47577,0.90802 0,0 0.41094,0.72952 0.68774,0.72952 0.27681,0 0.43858,0.99678 0.92163,1.18939 0,0 0.24947,0.9189 0.52777,1.22522 0.27831,0.30632 0.16148,1.34453 0.88055,1.00295 0.71908,-0.34159 1.55718,-0.97144 2.25676,-1.09034 0.69959,-0.11889 2.44989,-0.24505 2.83537,-0.15924 0.38548,0.0858 0.81001,-0.0424 0.97928,-0.0999 0.16927,-0.0575 0.83817,0.25651 1.33016,0.0668 0,0 0.81489,0.41548 1.06769,0.34923 0.25279,-0.0662 2.02302,1.77684 2.2948,2.20928 0.27179,0.43244 1.19265,1.46171 1.54281,1.50597 0.35017,0.0443 0.43951,1.48758 0.46163,2.05454 0.0221,0.56696 0.70936,0.70098 1.36165,0.91731 0.65229,0.21634 1.38322,0.68451 1.64578,1.24224 0.26256,0.55772 0.28028,1.07355 1.14692,2.04405 0.86664,0.970497 0.61069,0.555967 0.73944,0.894267 0.12875,0.33829 0.0367,0.58631 0.9291,1.3165 0.89241,0.73019 2.12775,1.97995 2.88303,3.12757 0.75528,1.14761 1.14382,1.83619 1.23571,2.6259 0.0919,0.78971 -1.01904,1.43391 -1.18467,2.15818 -0.16566,0.72427 -0.0811,0.92619 1.05026,1.61742 1.13136,0.69122 0.46056,-0.27238 1.75768,1.22328 0,0 0.26356,0.40626 0.11314,1.5174 0,0 0.0594,0.28274 -0.0709,0.53909 -0.13022,0.25636 0.0199,0.37861 0.16391,0.6561 0.1441,0.27749 -0.1167,0.3498 -0.11109,0.55581 0.006,0.20601 0.068,0.53092 0.1725,0.67874 0.10454,0.14782 -0.18505,0.20591 -0.28765,0.68208 -0.10261,0.47616 -0.61844,0.68795 -0.67392,1.12602 -0.0555,0.43807 -1.24325,0.93486 -1.91839,1.16236 -0.67516,0.2275 -2.42216,0.7338 -3.10655,1.07728 -0.68438,0.34349 -4.58558,1.85157 -5.65892,2.01443 -1.07333,0.16285 -2.72278,0.92275 -3.82633,1.18678 -1.10354,0.26403 -3.2033,0.93316 -3.71094,1.13971 -0.50764,0.20654 -2.24398,0.17495 -3.38472,0.73805 -1.14074,0.5631 -2.46423,0.51388 -2.96391,0.7628 -0.49968,0.24893 -1.51636,0.27475 -1.7809,0.38673 -0.26454,0.11197 -1.61305,0.63865 -2.18588,0.89652 -0.57283,0.25787 -1.43047,0.43359 -1.78468,0.3786 -0.35422,-0.055 -1.713,0.80327 -2.34265,1.02938 -0.62966,0.22613 -2.9769,1.04634 -4.05992,1.8068 -1.08301,0.76046 -2.27613,1.26769 -4.6449,3.60959 -2.36878,2.3419 -2.5449,3.68774 -2.95016,5.20379 -0.40526,1.51606 -0.77681,3.49779 -0.8659,5.07305 -0.0891,1.57526 0.11336,8.40523 0.39584,10.19525 0.28248,1.79001 0.39276,7.23399 0.57057,12.96075 0.17781,5.72677 0.62051,15.5509 0.41932,20.66639 -0.20119,5.11549 0.1043,10.71505 -0.17302,18.13414 0,0 -0.0509,0.43736 -0.51592,5.26618 -0.46503,4.82882 -0.13673,3.84905 -0.60253,6.83235 -0.4658,2.9833 -1.625,5.15669 -1.50451,5.90205 0,0 -0.0244,0.0943 0.14484,0.1283 0.16925,0.034 -0.0555,0.30284 -0.20061,0.37763 -0.14508,0.0748 -0.18431,0.19369 -0.27407,0.22567 -0.0898,0.032 -0.54976,-0.077 -0.56873,-0.14168 -0.019,-0.0647 -0.27809,-0.0113 -0.27809,0.073 0,0.0844 -0.47203,0.0996 -0.57457,0.0425 -0.10254,-0.0571 -0.13369,-0.25269 -0.13369,-0.25269 z"
       id="path373-7" />
  </g>
  <g
     inkscape:label="Layer 1"
     inkscape:groupmode="layer"
     id="layer1"
     style="display:inline" />
</svg>
