<?xml version="1.0" encoding="UTF-8" standalone="no"?>
<svg
   xmlns:dc="http://purl.org/dc/elements/1.1/"
   xmlns:cc="http://creativecommons.org/ns#"
   xmlns:rdf="http://www.w3.org/1999/02/22-rdf-syntax-ns#"
   xmlns:svg="http://www.w3.org/2000/svg"
   xmlns="http://www.w3.org/2000/svg"
   xmlns:sodipodi="http://sodipodi.sourceforge.net/DTD/sodipodi-0.dtd"
   xmlns:inkscape="http://www.inkscape.org/namespaces/inkscape"
   width="1024mm"
   height="768mm"
   viewBox="0 0 1024 768"
   version="1.1"
   id="svg286"
   sodipodi:docname="leaf-04.svg"
   inkscape:version="1.0.1 (0767f8302a, 2020-10-17)">
  <defs
     id="defs280" />
  <sodipodi:namedview
     id="base"
     pagecolor="#ffffff"
     bordercolor="#666666"
     borderopacity="1.0"
     inkscape:pageopacity="0.0"
     inkscape:pageshadow="2"
     inkscape:zoom="0.175"
     inkscape:cx="1199.0282"
     inkscape:cy="1659.8661"
     inkscape:document-units="mm"
     inkscape:current-layer="layer5"
     inkscape:document-rotation="0"
     showgrid="false"
     inkscape:window-width="2022"
     inkscape:window-height="1253"
     inkscape:window-x="38"
     inkscape:window-y="65"
     inkscape:window-maximized="0" />
  <metadata
     id="metadata283">
    <rdf:RDF>
      <cc:Work
         rdf:about="">
        <dc:format>image/svg+xml</dc:format>
        <dc:type
           rdf:resource="http://purl.org/dc/dcmitype/StillImage" />
        <dc:title></dc:title>
      </cc:Work>
    </rdf:RDF>
  </metadata>
  <g
     inkscape:groupmode="layer"
     id="layer5"
     inkscape:label="Layer 2"
     style="display:inline">
    <path
       id="rect295"
       style="fill:#000000;stroke-width:0.992054"
       d="M 0 0 L 0 2902.6777 L 3870.2363 2902.6777 L 3870.2363 0 L 0 0 z M 1874.0645 809.06055 C 1876.106 809.04419 1877.3858 812.75208 1871.2949 821.62305 C 1863.1741 833.45085 1866.3445 833.65045 1889.4062 838.27148 C 1912.4672 842.89226 1961.814 846.20904 1970.5059 846.81641 C 1979.1977 847.42389 1979.8044 845.12351 1982.0195 849.6543 C 1984.2345 854.18595 1985.9651 849.52572 1988.5977 844.46289 C 1991.2287 839.39972 2007.9316 844.83156 2035.3262 835.42969 C 2035.3262 835.42969 2076.8226 825.66429 2084.207 824.67383 C 2091.5914 823.6834 2091.0211 825.93128 2086.207 833.71484 C 2081.3925 841.49882 2080.1043 859.16695 2098.8223 863.41797 C 2117.5424 867.66937 2157.5903 881.81539 2206.75 878.90625 C 2255.9097 875.99715 2267.2853 882.24275 2274.9746 874.69141 C 2282.6638 867.14002 2285.8995 874.39832 2280.1973 884.51562 C 2274.4948 894.63304 2260.5816 913.49939 2276.8633 915.93945 C 2276.8633 915.93945 2284.2157 915.30267 2279.1406 924.18555 C 2274.0655 933.06842 2268.5062 946.61522 2282.0801 953.21484 C 2282.0801 953.21484 2307.4943 972.59751 2325.0254 951.22852 C 2325.0254 951.22852 2340.4643 951.93962 2359.2734 955.87891 C 2378.0824 959.81865 2411.9439 968.05058 2421.6465 964.25586 C 2431.3493 960.46136 2421.8189 971.67605 2417.9414 975.30859 C 2414.0626 978.94098 2401.843 1002.3995 2417.6309 1011.7617 C 2433.4183 1021.1238 2435.2321 1030.716 2466.6719 1036.9961 C 2498.1118 1043.2764 2509.6356 1052.861 2526.9414 1048.459 C 2544.247 1044.057 2537.5999 1049.2434 2529.8145 1058.5605 C 2522.0289 1067.8777 2516.0587 1087.3168 2528.6309 1097.3477 C 2541.2033 1107.3784 2548.0309 1108.8842 2562.6719 1119.8809 C 2577.3131 1130.8775 2595.1678 1137.4001 2626.9922 1144.5508 C 2626.9922 1144.5508 2639.3946 1143.798 2626.7012 1160.3145 C 2614.0075 1176.8308 2623.5917 1182.4919 2633.0078 1189.6465 C 2642.4227 1196.8008 2644.4516 1210.4579 2670.1953 1218.9902 C 2695.9387 1227.5227 2699.334 1231.6704 2711.7383 1229.1133 C 2724.1428 1226.5563 2710.9028 1237.3455 2708.8555 1242.7207 C 2706.8025 1248.0947 2690.1205 1254.6885 2701.0645 1274.0488 C 2712.0074 1293.4089 2723.8391 1310.5786 2741.0195 1316.6094 C 2758.2 1322.64 2756.1147 1321.4644 2767.5781 1317.6465 C 2779.0418 1313.8285 2771.8399 1320.988 2767.377 1331.9434 C 2762.9119 1342.8982 2751.3846 1348.9428 2772.7305 1369.707 C 2794.0764 1390.4712 2784.0363 1397.6606 2820.1953 1404.0703 C 2820.1953 1404.0703 2831.6448 1405.0956 2838.6074 1407.5801 C 2838.6074 1407.5801 2839.4728 1411.3378 2836.2461 1421.1973 C 2833.0194 1431.0567 2823.4156 1438.0427 2843.8867 1456.8027 C 2864.3575 1475.5628 2862.7407 1483.7005 2883.8359 1487.3984 C 2904.9308 1491.0965 2895.2475 1490.9849 2892.2832 1494.7656 C 2889.3181 1498.5461 2885.0345 1509.6316 2885.3672 1512.3066 C 2885.6979 1514.9811 2885.0282 1524.2209 2905.4355 1540.3945 C 2925.8436 1556.5683 2919.7465 1550.8378 2931.3359 1552.6211 C 2942.925 1554.4044 2926.4937 1556.0903 2929.668 1569.1699 C 2932.8407 1582.2492 2937.9962 1582.376 2945.8613 1591.1523 C 2953.7264 1599.9286 2956.5896 1604.4776 2962.4258 1605.7793 C 2968.2621 1607.0811 2958.9607 1610.5333 2963.75 1619.1523 C 2968.5396 1627.7714 2965.7604 1625.6857 2975.0957 1629.5645 C 2984.431 1633.4433 2972.9332 1632.9421 2978.877 1637.9512 C 2984.8199 1642.96 2991.6011 1640.741 2995.1152 1642.6348 C 2998.6302 1644.5269 2990.4976 1642.3082 2995.1855 1646.9668 C 2999.8746 1651.6255 2998.1235 1655.0697 3023.5645 1661.4434 C 3049.0059 1667.8172 3031.3472 1669.386 3050.2715 1675.9297 C 3069.1958 1682.4733 3060.4996 1681.1814 3079.3984 1690.5684 C 3098.2969 1699.9551 3096.0941 1704.2228 3109.8047 1710.8066 C 3123.5158 1717.3906 3115.6006 1723.6133 3124.8711 1727.0371 C 3134.1416 1730.4611 3103.1458 1724.768 3103.4473 1729.6543 C 3103.7496 1734.5408 3076.3572 1728.5534 3072.9746 1733.9668 C 3069.5908 1739.3799 3038.4818 1727.5701 3026.1113 1730.8516 C 3013.7409 1734.1331 3010.9875 1741.0778 2985.0117 1735.2344 C 2959.0353 1729.392 2967.109 1745.6993 2963.5547 1746.4395 C 2960.0003 1747.1794 2949.5109 1741.7618 2942.6426 1742.75 C 2935.7742 1743.7382 2915.0819 1746.3309 2911.3457 1757.9199 C 2907.6087 1769.5087 2911.0959 1763.8997 2898.5938 1764.7461 C 2886.0908 1765.5923 2852.1511 1771.0839 2844.7754 1776.8574 C 2837.3997 1782.6309 2831.2133 1782.8412 2836.3691 1793.8145 C 2841.5249 1804.7876 2830.1903 1795.5455 2812.1621 1794.793 C 2794.1339 1794.0404 2765.1818 1809.8793 2763.9668 1819.3457 C 2762.7522 1828.8122 2752.1667 1827.6032 2759.5703 1842.6406 C 2766.9731 1857.6779 2746.361 1833.3197 2728.3379 1840.0723 C 2710.3144 1846.8248 2667.1092 1859.2314 2662.9648 1870.5977 C 2662.9648 1870.5977 2651.6465 1869.8543 2657.2383 1882.6484 C 2662.8294 1895.4416 2660.8075 1902.5218 2655.248 1901.9883 C 2649.6886 1901.4536 2653.2294 1891.0707 2642.0879 1888.9805 C 2630.9457 1886.8905 2582.2951 1891.7434 2564.9258 1902.1719 C 2547.5565 1912.6007 2550.3163 1909.2614 2549.4902 1925.2832 C 2548.6649 1941.3048 2549.5342 1947.2686 2540.916 1937.6211 C 2532.2978 1927.9732 2512.0042 1929.8665 2501.4082 1927.041 C 2490.8119 1924.2184 2444.9703 1925.4819 2436.3359 1948.1699 C 2427.7018 1970.8582 2433.6031 1960.9687 2438.8555 1971.5801 C 2444.1007 1982.1896 2418.8347 1966.0434 2399.5996 1961.2637 C 2380.3642 1956.4838 2352.4914 1955.2625 2336.5254 1966.8047 C 2320.5592 1978.3473 2314.2538 1984.1182 2321.7812 2001.4844 C 2329.3094 2018.8502 2321.9903 2004.7487 2295.0566 1994.3672 C 2268.1237 1983.9865 2205.717 1971.0865 2182.1074 2011.9297 C 2182.1074 2011.9297 2175.4379 2024.6964 2182.584 2040.5547 C 2189.7304 2056.4131 2184.3951 2042.7553 2156.0781 2030.6328 C 2127.7606 2018.5108 2090.0099 1997.8207 2060.916 2002.3809 C 2031.8225 2006.9409 2018.7491 2006.2586 2014.9922 2004.1191 C 2011.2348 2001.9799 1993.5234 2001.4287 1995.8555 2036.3145 C 1998.1869 2071.2016 1988.5348 2028.1391 1955.0527 2015.7891 C 1921.5703 2003.4386 1879.2969 1975.0493 1864.373 1974.4648 C 1849.4491 1973.8812 1815.4319 1952.2279 1813.5156 1992.5215 C 1811.5997 2032.815 1807.112 2000.3321 1792.7461 1988.8848 C 1778.3806 1977.4354 1711.7981 1919.2876 1696.9375 1909.9805 C 1682.0769 1900.6733 1654.1799 1887.9898 1640.4746 1887.4785 C 1626.7696 1886.9662 1630.6789 1883.607 1627.002 1901.2344 C 1623.3139 1918.8595 1619.162 1895.9008 1602.9844 1883.6895 C 1586.8064 1871.4784 1564.0838 1843.9514 1545.9062 1817.959 C 1527.729 1791.9666 1491.9406 1756.6403 1473.9043 1743.6348 C 1455.8679 1730.6291 1448.5366 1720.4411 1444.1914 1730.1582 C 1439.8474 1739.8753 1438.7872 1743.3976 1440.7227 1746.5215 C 1442.6473 1749.6413 1426.1283 1737.4367 1415.209 1711.8945 C 1404.2899 1686.3524 1336.711 1622.9658 1317.3242 1611.1602 C 1297.9373 1599.3545 1298.0116 1598.1756 1294.3066 1613.8066 C 1290.6069 1629.4389 1301.8053 1643.4786 1269.668 1596.7598 C 1237.5295 1550.0407 1208.6933 1490.1071 1207.123 1481.1406 C 1205.5528 1472.1742 1218.1925 1480.6769 1190.7695 1426.4062 C 1163.3466 1372.1356 1125.476 1280.9487 1128.1855 1268.8008 C 1130.8951 1256.6529 1117.3963 1249.5542 1141.2402 1207.6426 C 1165.0851 1165.7312 1140.1959 1181.3291 1125.6211 1184.877 C 1111.0463 1188.4249 1081.2693 1202.844 1069.375 1197.4805 C 1057.5117 1192.1311 1057.4756 1161.2011 1060.0117 1162.7266 C 1060.03 1162.7204 1124.5641 1140.9172 1140.2539 1140.6621 C 1140.2539 1140.6621 1143.1014 1114.0051 1150.6953 1101.6328 C 1158.288 1089.2603 1256.489 1006.7509 1295.5508 973.39453 C 1295.5508 973.39453 1346.2087 947.42056 1370.0742 928.93164 C 1393.9397 910.44265 1390.4312 920.67227 1419.2168 896.74219 C 1419.2168 896.74219 1425.4149 898.34874 1420.332 911.3457 C 1415.2503 924.34289 1445.134 913.19158 1480.541 900.52344 C 1515.948 887.85537 1564.1325 872.14301 1604.5449 851.69531 C 1604.5449 851.69531 1645.7213 839.34731 1654.875 831.85156 C 1654.875 831.85156 1663.8484 827.9003 1658.5547 838.57422 C 1653.2615 849.24828 1650.5061 849.51956 1669.1836 850.95117 C 1687.8611 852.38267 1738.5404 845.35811 1760.332 841.61328 C 1782.1237 837.86845 1848.5445 823.46654 1857.6328 817.6582 C 1866.7211 811.84986 1869.5945 813.38366 1872.0137 810.26562 C 1872.6185 809.48613 1873.3839 809.066 1874.0645 809.06055 z "
       transform="scale(0.26458333)" />
    <path
       style="display:inline;fill:none;stroke:#000000;stroke-width:0.264583px;stroke-linecap:butt;stroke-linejoin:miter;stroke-opacity:1"
       d="m 311.4167,225.5842 c 0,0 -1.20375,-0.071 -1.18745,-1.30278 0,0 0.34825,-0.55824 0.50475,-0.61965 0.15649,-0.0614 0.45213,-0.3176 0.49344,-0.47169 0.0413,-0.15409 0.095,-0.35435 0.18462,-0.42844 0.0897,-0.0741 0.64738,-1.14901 0.77108,-1.3426 0.12371,-0.1936 0.17077,-0.17038 0.27891,-0.66106 0.10815,-0.49068 0.25282,-0.62187 0.29466,-1.01503 0.0419,-0.39315 0.37245,-1.1159 0.41504,-1.73999 0,0 0.26606,-1.15896 0.29594,-1.76594 0.0299,-0.60699 0.56883,-3.71183 0.52439,-4.99915 0,0 0.39765,-7.19011 0.45722,-11.85844 0.0596,-4.66834 0.3397,-26.49246 -0.33393,-33.91846 0,0 -0.73243,-13.23065 -1.149,-16.59631 -0.41658,-3.36566 -2.28976,-6.19981 -5.55011,-7.74578 -3.26036,-1.54597 -2.50586,-1.28479 -2.92753,-1.58957 -0.42167,-0.30478 -1.3772,-0.68239 -2.76654,-0.86608 -1.38934,-0.18369 -1.4304,-0.77518 -3.2743,-0.64758 0,0 -3.52692,-0.1052 -4.53686,-0.2444 -1.00995,-0.13921 -1.4289,0.2118 -1.8841,0.2118 -0.45521,0 -3.24105,-0.0546 -4.00358,0.18979 -0.76253,0.2444 -2.08035,0.34587 -2.44012,0.34587 -0.35977,0 -2.01469,0.44243 -2.70966,0.68549 -0.69497,0.24306 -1.10149,0.0133 -3.20213,0.53343 0,0 -1.64142,0.23869 -2.69129,0.58166 -1.04988,0.34296 -3.16687,0.51823 -4.40816,0.74649 -1.24129,0.22826 -3.12481,0.1081 -3.72322,0.15049 -0.5984,0.0424 -4.01356,0.51393 -4.36099,0.41555 -0.34743,-0.0984 -2.6919,-0.30137 -3.74688,-1.21794 0,0 -0.97027,-1.57035 -1.54891,-2.24029 0,0 -0.63623,-1.04068 -0.62818,-1.73713 0.008,-0.69646 0.38452,-3.95313 0.27317,-4.20206 0,0 0.15084,-1.03415 -0.81173,-3.10765 0,0 -0.0974,-0.46403 -0.0274,-1.08349 0.07,-0.61948 -0.11415,-2.28337 1.03634,-3.05706 1.1505,-0.77369 2.21046,-0.79548 3.11739,-1.86887 0,0 1.24874,-0.62867 1.71709,-1.21376 0.46835,-0.5851 0.0353,-2.07087 -0.65279,-2.62476 -0.68813,-0.55389 0.0498,-0.48912 -0.56577,-1.44613 -0.61562,-0.957 -0.52359,-1.78512 -0.62225,-3.60066 -0.0987,-1.81554 0.2105,-2.27836 1.6873,-3.84611 1.47679,-1.56774 1.92962,-2.27184 2.01453,-2.56746 0.0849,-0.29562 0.44879,-0.59564 0.70724,-1.03785 0.25845,-0.44221 1.68557,-0.5216 2.70714,-1.3211 1.02156,-0.7995 1.71576,-2.39616 2.08116,-3.19204 0.36541,-0.79588 1.4649,-1.39559 2.41231,-3.032257 0.94741,-1.63667 1.30403,-3.02497 1.84193,-3.32043 0.53791,-0.29546 2.43594,-0.74053 3.00013,-1.133 0.56419,-0.39247 1.29788,-0.70581 1.39535,-0.85432 0.0975,-0.14851 0.0178,-0.38967 0.95657,-0.77145 0.93879,-0.38177 2.37449,-1.9544 2.80559,-2.67762 0.4311,-0.72322 0.41366,-0.91989 1.89735,-1.32098 1.48369,-0.4011 2.21336,-0.46869 2.97445,-0.8402 0,0 0.48531,0.0658 0.81418,-0.0454 0.32888,-0.11121 0.46649,-0.21272 0.58649,-0.21272 0.12,0 0.59475,0.13377 0.87207,-0.001 0.27731,-0.13471 0.33015,0.0771 0.90599,-0.1134 0.57583,-0.19051 1.27183,0.0593 1.54596,-0.0652 0.27413,-0.12446 0.82249,0.083 1.36564,0.0403 0,0 0.61956,0.61662 1.08631,0.42158 0.46675,-0.19504 1.02215,-0.66975 2.05774,-1.60857 1.0356,-0.93883 0.98019,-0.24998 2.68603,-1.33325 0,0 0.51596,-0.11919 1.19858,-0.35389 0.68261,-0.2347 1.15582,-0.62898 1.5479,-0.64913 0.39208,-0.0201 1.18644,-0.008 1.45316,-0.23517 0.26672,-0.2273 0.18393,0.11721 1.15921,-0.23182 0.97529,-0.34903 1.78729,0.61706 1.80633,0.85786 0.019,0.24079 0.33131,0.39295 0.50187,1.40683 0.17057,1.01386 0.12773,1.99044 0.79556,2.15876 0.66783,0.16831 0.8277,0.12691 1.27322,-1.33781 0,0 0.95251,-1.16709 1.3613,-2.00644 0.40878,-0.83935 2.47124,-1.33274 3.34646,-1.93997 0.87523,-0.60724 2.24768,-0.48321 2.85604,-0.43867 0.60836,0.0445 1.33602,0.77945 1.69768,0.77293 0.36167,-0.007 1.18981,1.25369 1.67323,1.22435 0.48343,-0.0293 1.09291,0.29472 2.73078,-0.70802 1.63788,-1.00273 2.10172,0.27117 2.67268,0.27117 0,0 0.75652,0.48258 1.82756,0.3887 0,0 0.54756,0.41158 0.96162,0.28473 0.41405,-0.12685 2.25152,0.95925 2.4712,1.03112 0.21967,0.0719 1.11323,0.86349 1.47577,0.90802 0,0 0.41094,0.72952 0.68774,0.72952 0.27681,0 0.43858,0.99678 0.92163,1.18939 0,0 0.24947,0.9189 0.52777,1.22522 0.27831,0.30632 0.16148,1.34453 0.88055,1.00295 0.71908,-0.34159 1.55718,-0.97144 2.25676,-1.09034 0.69959,-0.11889 2.44989,-0.24505 2.83537,-0.15924 0.38548,0.0858 0.81001,-0.0424 0.97928,-0.0999 0.16927,-0.0575 0.83817,0.25651 1.33016,0.0668 0,0 0.81489,0.41548 1.06769,0.34923 0.25279,-0.0662 2.02302,1.77684 2.2948,2.20928 0.27179,0.43244 1.19265,1.46171 1.54281,1.50597 0.35017,0.0443 0.43951,1.48758 0.46163,2.05454 0.0221,0.56696 0.70936,0.70098 1.36165,0.91731 0.65229,0.21634 1.38322,0.68451 1.64578,1.24224 0.26256,0.55772 0.28028,1.07355 1.14692,2.04405 0.86664,0.970497 0.61069,0.555967 0.73944,0.894267 0.12875,0.33829 0.0367,0.58631 0.9291,1.3165 0.89241,0.73019 2.12775,1.97995 2.88303,3.12757 0.75528,1.14761 1.14382,1.83619 1.23571,2.6259 0.0919,0.78971 -1.01904,1.43391 -1.18467,2.15818 -0.16566,0.72427 -0.0811,0.92619 1.05026,1.61742 1.13136,0.69122 0.46056,-0.27238 1.75768,1.22328 0,0 0.26356,0.40626 0.11314,1.5174 0,0 0.0594,0.28274 -0.0709,0.53909 -0.13022,0.25636 0.0199,0.37861 0.16391,0.6561 0.1441,0.27749 -0.1167,0.3498 -0.11109,0.55581 0.006,0.20601 0.068,0.53092 0.1725,0.67874 0.10454,0.14782 -0.18505,0.20591 -0.28765,0.68208 -0.10261,0.47616 -0.61844,0.68795 -0.67392,1.12602 -0.0555,0.43807 -1.24325,0.93486 -1.91839,1.16236 -0.67516,0.2275 -2.42216,0.7338 -3.10655,1.07728 -0.68438,0.34349 -4.58558,1.85157 -5.65892,2.01443 -1.07333,0.16285 -2.72278,0.92275 -3.82633,1.18678 -1.10354,0.26403 -3.2033,0.93316 -3.71094,1.13971 -0.50764,0.20654 -2.24398,0.17495 -3.38472,0.73805 -1.14074,0.5631 -2.46423,0.51388 -2.96391,0.7628 -0.49968,0.24893 -1.51636,0.27475 -1.7809,0.38673 -0.26454,0.11197 -1.61305,0.63865 -2.18588,0.89652 -0.57283,0.25787 -1.43047,0.43359 -1.78468,0.3786 -0.35422,-0.055 -1.713,0.80327 -2.34265,1.02938 -0.62966,0.22613 -2.9769,1.04634 -4.05992,1.8068 -1.08301,0.76046 -2.27613,1.26769 -4.6449,3.60959 -2.36878,2.3419 -2.5449,3.68774 -2.95016,5.20379 -0.40526,1.51606 -0.77681,3.49779 -0.8659,5.07305 -0.0891,1.57526 0.11336,8.40523 0.39584,10.19525 0.28248,1.79001 0.39276,7.23399 0.57057,12.96075 0.17781,5.72677 0.62051,15.5509 0.41932,20.66639 -0.20119,5.11549 0.1043,10.71505 -0.17302,18.13414 0,0 -0.0509,0.43736 -0.51592,5.26618 -0.46503,4.82882 -0.13673,3.84905 -0.60253,6.83235 -0.4658,2.9833 -1.625,5.15669 -1.50451,5.90205 0,0 -0.0244,0.0943 0.14484,0.1283 0.16925,0.034 -0.0555,0.30284 -0.20061,0.37763 -0.14508,0.0748 -0.18431,0.19369 -0.27407,0.22567 -0.0898,0.032 -0.54976,-0.077 -0.56873,-0.14168 -0.019,-0.0647 -0.27809,-0.0113 -0.27809,0.073 0,0.0844 -0.47203,0.0996 -0.57457,0.0425 -0.10254,-0.0571 -0.13369,-0.25269 -0.13369,-0.25269 z"
       id="path373-7" />
  </g>
  <g
     inkscape:label="Layer 1"
     inkscape:groupmode="layer"
     id="layer1"
     style="display:inline" />
</svg>
