<?xml version="1.0" encoding="UTF-8" standalone="no"?>
<svg
   xmlns:dc="http://purl.org/dc/elements/1.1/"
   xmlns:cc="http://creativecommons.org/ns#"
   xmlns:rdf="http://www.w3.org/1999/02/22-rdf-syntax-ns#"
   xmlns:svg="http://www.w3.org/2000/svg"
   xmlns="http://www.w3.org/2000/svg"
   xmlns:sodipodi="http://sodipodi.sourceforge.net/DTD/sodipodi-0.dtd"
   xmlns:inkscape="http://www.inkscape.org/namespaces/inkscape"
   width="1024mm"
   height="768mm"
   viewBox="0 0 1024 768"
   version="1.1"
   id="svg286"
   sodipodi:docname="leaf-03.svg"
   inkscape:version="1.0.1 (0767f8302a, 2020-10-17)">
  <defs
     id="defs280" />
  <sodipodi:namedview
     id="base"
     pagecolor="#ffffff"
     bordercolor="#666666"
     borderopacity="1.0"
     inkscape:pageopacity="0.0"
     inkscape:pageshadow="2"
     inkscape:zoom="0.175"
     inkscape:cx="1199.0282"
     inkscape:cy="1659.8661"
     inkscape:document-units="mm"
     inkscape:current-layer="layer5"
     inkscape:document-rotation="0"
     showgrid="false"
     inkscape:window-width="2022"
     inkscape:window-height="1253"
     inkscape:window-x="38"
     inkscape:window-y="65"
     inkscape:window-maximized="0" />
  <metadata
     id="metadata283">
    <rdf:RDF>
      <cc:Work
         rdf:about="">
        <dc:format>image/svg+xml</dc:format>
        <dc:type
           rdf:resource="http://purl.org/dc/dcmitype/StillImage" />
        <dc:title></dc:title>
      </cc:Work>
    </rdf:RDF>
  </metadata>
  <g
     inkscape:groupmode="layer"
     id="layer5"
     inkscape:label="Layer 2"
     style="display:inline">
    <path
       id="rect295"
       style="fill:#000000;stroke-width:0.992054"
       d="M 0 0 L 0 2902.6777 L 3870.2363 2902.6777 L 3870.2363 0 L 0 0 z M 2021.8125 231.20703 C 2027.9392 231.14692 2033.3991 231.59931 2037.1113 231.87109 C 2047.0105 232.59519 2058.8514 244.55515 2064.7363 244.44922 C 2070.6214 244.3353 2084.0967 264.84851 2091.9629 264.37109 C 2099.8292 263.89433 2109.7472 269.16594 2136.3984 252.84961 C 2163.0499 236.53312 2170.5981 257.26172 2179.8887 257.26172 C 2179.8887 257.26172 2192.1971 265.1155 2209.625 263.58789 C 2209.625 263.58789 2218.5359 270.28478 2225.2734 268.2207 C 2232.0108 266.15661 2261.9098 283.82859 2265.4844 284.99805 C 2269.0588 286.16796 2283.5988 299.04868 2289.498 299.77344 C 2289.498 299.77344 2296.1854 311.64453 2300.6895 311.64453 C 2305.1937 311.64453 2307.8254 327.86391 2315.6855 330.99805 C 2315.6855 330.99805 2319.745 345.95114 2324.2734 350.93555 C 2328.8021 355.91995 2326.9009 372.81399 2338.6016 367.25586 C 2350.3024 361.69753 2363.9387 351.44826 2375.3223 349.51367 C 2386.7059 347.57912 2415.1884 345.5256 2421.4609 346.92188 C 2427.7334 348.31799 2434.6402 346.23253 2437.3945 345.29688 C 2440.1489 344.36125 2451.0334 349.46974 2459.0391 346.38281 C 2459.0391 346.38281 2472.2985 353.1444 2476.4121 352.06641 C 2480.5255 350.9892 2509.3315 380.97898 2513.7539 388.01562 C 2518.1764 395.05224 2533.1597 411.79934 2538.8574 412.51953 C 2544.5554 413.24036 2546.0092 436.72565 2546.3691 445.95117 C 2546.729 455.17685 2557.9114 457.3567 2568.5254 460.87695 C 2579.1394 464.39724 2591.0343 472.01662 2595.3066 481.0918 C 2599.579 490.16712 2599.8669 498.55968 2613.9688 514.35156 C 2628.0707 530.14345 2623.905 523.39964 2626 528.9043 C 2628.095 534.40907 2626.5981 538.44443 2641.1191 550.32617 C 2655.6404 562.20776 2675.7414 582.54302 2688.0312 601.2168 C 2700.3211 619.89061 2706.6435 631.09522 2708.1387 643.94531 C 2709.634 656.79525 2691.5564 667.27725 2688.8613 679.0625 C 2686.1657 690.84775 2687.5418 694.13336 2705.9512 705.38086 C 2724.3605 716.62847 2713.4461 700.94986 2734.5527 725.28711 C 2734.5527 725.28711 2738.8402 731.89801 2736.3926 749.97852 C 2736.3926 749.97852 2737.3605 754.57872 2735.2402 758.75 C 2733.1213 762.92146 2735.563 764.91046 2737.9062 769.42578 C 2740.251 773.94088 2736.0083 775.11838 2736.0996 778.4707 C 2736.1971 781.82288 2737.2058 787.10834 2738.9062 789.51367 C 2740.6073 791.91915 2735.8941 792.8651 2734.2246 800.61328 C 2732.555 808.3615 2724.1625 811.80732 2723.2598 818.93555 C 2722.3567 826.06377 2703.0288 834.1479 2692.043 837.84961 C 2681.0568 841.55147 2652.6304 849.78982 2641.4941 855.37891 C 2630.358 860.96815 2566.8774 885.50623 2549.4121 888.15625 C 2531.947 890.8063 2505.1073 903.17264 2487.1504 907.46875 C 2469.1937 911.76501 2435.0278 922.65284 2426.7676 926.01367 C 2418.5073 929.37462 2390.2534 928.86073 2371.6914 938.02344 C 2353.1294 947.18615 2331.5936 946.38514 2323.4629 950.43555 C 2315.3321 954.4861 2298.789 954.90656 2294.4844 956.72852 C 2290.1798 958.55063 2268.237 967.12019 2258.916 971.31641 C 2249.595 975.51244 2235.6387 978.37137 2229.875 977.47656 C 2224.1112 976.58161 2202.0015 990.54715 2191.7559 994.22656 C 2181.5101 997.90597 2143.3162 1011.2528 2125.6934 1023.627 C 2108.0707 1036.0011 2088.6557 1044.2542 2050.1113 1082.3613 C 2011.5668 1120.4685 2008.7018 1142.3679 2002.1074 1167.0371 C 1995.5131 1191.7062 1989.4672 1223.9534 1988.0176 1249.5859 C 1986.5678 1275.2184 1989.8625 1386.3556 1994.459 1415.4824 C 1999.0555 1444.6095 2000.8489 1533.1936 2003.7422 1626.3789 C 2006.6355 1719.5644 2013.8401 1879.4214 2010.5664 1962.6602 C 2007.2927 2045.8989 2012.2625 2137.0136 2007.75 2257.7363 C 2007.75 2257.7363 2006.9222 2264.8536 1999.3555 2343.4277 C 1991.7886 2422.0018 1997.1302 2406.0595 1989.5508 2454.6035 C 1981.9713 2503.1475 1963.1097 2538.5122 1965.0703 2550.6406 C 1965.0703 2550.6406 1964.6719 2552.1753 1967.4258 2552.7285 C 1970.1798 2553.2818 1966.5233 2557.6561 1964.1621 2558.873 C 1961.8014 2560.0902 1961.1637 2562.0246 1959.7031 2562.5449 C 1958.2419 2563.0656 1950.7579 2561.2927 1950.4492 2560.2402 C 1950.1401 2559.1874 1945.9238 2560.0562 1945.9238 2561.4277 C 1945.9238 2562.8011 1938.2428 2563.0483 1936.5742 2562.1191 C 1934.9057 2561.19 1934.3984 2558.0078 1934.3984 2558.0078 L 1934.4004 2558.0059 C 1934.4004 2558.0059 1914.8129 2556.85 1915.0781 2536.8066 C 1915.0781 2536.8066 1920.7445 2527.7239 1923.291 2526.7246 C 1925.8374 2525.7255 1930.6481 2521.5562 1931.3203 2519.0488 C 1931.9924 2516.5415 1932.8659 2513.2837 1934.3242 2512.0781 C 1935.7838 2510.8724 1944.8583 2493.3806 1946.8711 2490.2305 C 1948.8841 2487.0802 1949.6505 2487.4589 1951.4102 2479.4746 C 1953.1699 2471.4903 1955.5243 2469.3545 1956.2051 2462.957 C 1956.8852 2456.5597 1962.264 2444.7997 1962.957 2434.6445 C 1962.957 2434.6445 1967.2872 2415.7869 1967.7734 2405.9102 C 1968.26 2396.0333 1977.0297 2345.5116 1976.3066 2324.5645 C 1976.3066 2324.5645 1982.7768 2207.5681 1983.7461 2131.6055 C 1984.7159 2055.6427 1989.2738 1700.5209 1978.3125 1579.6855 C 1978.3125 1579.6855 1966.3936 1364.3985 1959.6152 1309.6328 C 1952.8367 1254.8669 1922.3568 1208.7495 1869.3047 1183.5938 C 1816.2524 1158.4379 1828.5294 1162.6879 1821.668 1157.7285 C 1814.8066 1152.7692 1799.2596 1146.6255 1776.6523 1143.6367 C 1754.0451 1140.6477 1753.3768 1131.0231 1723.373 1133.0996 C 1723.373 1133.0996 1665.9825 1131.3861 1649.5488 1129.1211 C 1633.115 1126.8559 1626.2976 1132.5684 1618.8906 1132.5684 C 1611.4835 1132.5684 1566.1539 1131.6794 1553.7461 1135.6562 C 1541.3383 1139.6331 1519.8932 1141.2852 1514.0391 1141.2852 C 1508.1849 1141.2852 1481.2577 1148.4846 1469.9492 1152.4395 C 1458.6407 1156.3945 1452.0252 1152.6556 1417.8438 1161.1191 C 1417.8438 1161.1191 1391.1342 1165.0034 1374.0508 1170.584 C 1356.9672 1176.1646 1322.5204 1179.0162 1302.3223 1182.7305 C 1282.1241 1186.4447 1251.4756 1184.4899 1241.7383 1185.1797 C 1232.0012 1185.8696 1176.4307 1193.5423 1170.7773 1191.9414 C 1165.124 1190.3403 1126.9751 1187.0372 1109.8086 1172.123 C 1109.8086 1172.123 1094.0191 1146.5692 1084.6035 1135.668 C 1084.6035 1135.668 1074.2519 1118.7351 1074.3828 1107.4023 C 1074.5128 1096.0698 1080.64 1043.0781 1078.8281 1039.0273 C 1078.8281 1039.0273 1081.282 1022.1989 1065.6191 988.45898 C 1065.6191 988.45898 1064.0348 980.90809 1065.1738 970.82812 C 1066.3129 960.74816 1063.3164 933.6734 1082.0371 921.08398 C 1100.7579 908.49457 1118.0044 908.13978 1132.7617 890.67383 C 1132.7617 890.67383 1153.0822 880.44453 1160.7031 870.92383 C 1168.3241 861.40331 1161.2766 837.22769 1150.0801 828.21484 C 1138.8829 819.20199 1150.8915 820.25597 1140.875 804.68359 C 1130.8577 789.11122 1132.3534 775.63586 1130.748 746.09375 C 1129.142 716.55145 1134.1747 709.01991 1158.2051 683.50977 C 1182.2353 657.9995 1189.6027 646.5427 1190.9844 641.73242 C 1192.3659 636.92225 1198.2867 632.04113 1202.4922 624.8457 C 1206.6977 617.65009 1229.9201 616.35705 1246.543 603.34766 C 1263.1657 590.33811 1274.4624 564.35868 1280.4082 551.4082 C 1286.3541 538.45769 1304.244 528.69817 1319.6602 502.06641 C 1335.0763 475.43465 1340.8802 452.84482 1349.6328 448.03711 C 1358.3856 443.2294 1389.2688 435.98779 1398.4492 429.60156 C 1407.6297 423.21533 1419.5683 418.11577 1421.1543 415.69922 C 1422.7408 413.28266 1421.445 409.35859 1436.7207 403.14648 C 1451.9966 396.93419 1475.3582 371.34434 1482.373 359.57617 C 1489.3879 347.80797 1489.1036 344.60852 1513.2461 338.08203 C 1537.3885 331.55535 1549.2621 330.45536 1561.6465 324.41016 C 1561.6465 324.41016 1569.5432 325.48295 1574.8945 323.67188 C 1580.246 321.86246 1582.4848 320.21094 1584.4375 320.21094 C 1586.3901 320.21094 1594.1164 322.38695 1598.6289 320.19531 C 1603.1413 318.00334 1604.0011 321.44943 1613.3711 318.34961 C 1622.7409 315.24968 1634.0648 319.31493 1638.5254 317.28906 C 1642.986 315.26388 1651.91 318.64014 1660.748 317.94531 C 1660.748 317.94531 1670.8289 327.97836 1678.4238 324.80469 C 1686.0188 321.63102 1695.0552 313.90741 1711.9062 298.63086 C 1728.7574 283.35446 1727.856 294.56224 1755.6133 276.93555 C 1755.6133 276.93555 1764.0096 274.99661 1775.1172 271.17773 C 1786.2245 267.35872 1793.9248 260.94312 1800.3047 260.61523 C 1806.6846 260.28815 1819.6092 260.48377 1823.9492 256.78711 C 1828.2893 253.0885 1826.9428 258.69501 1842.8125 253.01562 C 1858.6823 247.33608 1871.8952 263.0565 1872.2051 266.97461 C 1872.5142 270.89271 1877.5957 273.36959 1880.3711 289.86719 C 1883.1466 306.36479 1882.4495 322.25523 1893.3164 324.99414 C 1904.1833 327.73286 1906.7857 327.05839 1914.0352 303.22461 C 1914.0352 303.22461 1929.5337 284.23399 1936.1855 270.57617 C 1942.8372 256.91835 1976.3972 248.89072 1990.6387 239.00977 C 1999.5397 232.83417 2011.6013 231.30721 2021.8125 231.20703 z "
       transform="scale(0.26458333)" />
  </g>
  <g
     inkscape:label="Layer 1"
     inkscape:groupmode="layer"
     id="layer1"
     style="display:inline" />
</svg>
