<?xml version="1.0" encoding="UTF-8" standalone="no"?>
<svg
   xmlns:dc="http://purl.org/dc/elements/1.1/"
   xmlns:cc="http://creativecommons.org/ns#"
   xmlns:rdf="http://www.w3.org/1999/02/22-rdf-syntax-ns#"
   xmlns:svg="http://www.w3.org/2000/svg"
   xmlns="http://www.w3.org/2000/svg"
   xmlns:sodipodi="http://sodipodi.sourceforge.net/DTD/sodipodi-0.dtd"
   xmlns:inkscape="http://www.inkscape.org/namespaces/inkscape"
   width="1024mm"
   height="768mm"
   viewBox="0 0 1024 768"
   version="1.1"
   id="svg286"
   sodipodi:docname="leaf-06.svg"
   inkscape:version="1.0.1 (0767f8302a, 2020-10-17)">
  <defs
     id="defs280" />
  <sodipodi:namedview
     id="base"
     pagecolor="#ffffff"
     bordercolor="#666666"
     borderopacity="1.0"
     inkscape:pageopacity="0.0"
     inkscape:pageshadow="2"
     inkscape:zoom="0.175"
     inkscape:cx="1199.0282"
     inkscape:cy="1659.8661"
     inkscape:document-units="mm"
     inkscape:current-layer="layer5"
     inkscape:document-rotation="0"
     showgrid="false"
     inkscape:window-width="2022"
     inkscape:window-height="1253"
     inkscape:window-x="38"
     inkscape:window-y="65"
     inkscape:window-maximized="0" />
  <metadata
     id="metadata283">
    <rdf:RDF>
      <cc:Work
         rdf:about="">
        <dc:format>image/svg+xml</dc:format>
        <dc:type
           rdf:resource="http://purl.org/dc/dcmitype/StillImage" />
        <dc:title></dc:title>
      </cc:Work>
    </rdf:RDF>
  </metadata>
  <g
     inkscape:groupmode="layer"
     id="layer5"
     inkscape:label="Layer 2"
     style="display:inline">
    <path
       id="rect295"
       style="fill:#000000;stroke-width:0.992054"
       d="M 0 0 L 0 2902.6777 L 3870.2363 2902.6777 L 3870.2363 0 L 0 0 z M 1494.291 355.27539 C 1494.8621 355.15388 1495.4992 355.56407 1496.1973 356.49219 C 1498.99 360.20448 1497.8608 367.38448 1501.9863 368.74219 C 1506.1118 370.09996 1514.6982 384.94069 1525.3105 392.02734 C 1535.923 399.11396 1540.1108 420.80129 1548.7598 424.54688 C 1557.4087 428.29239 1563.7885 438.81032 1570.8867 440.82031 C 1577.985 442.83034 1579.1426 435.47266 1579.1426 435.47266 C 1579.1426 435.47266 1584.0324 446.0212 1582.6621 449.51367 C 1581.2918 453.00626 1592.5137 459.28711 1592.5137 459.28711 C 1592.5137 459.28711 1623.3073 484.95442 1630.4199 485.53711 C 1637.5324 486.11976 1643.2538 485.4368 1641.875 480.74414 C 1640.4963 476.05144 1649.2733 485.46028 1649.3848 488.98828 C 1649.4961 492.51628 1649.6865 495.52456 1654.6191 498.12695 C 1659.5518 500.72935 1662.4899 512.20691 1670.8125 521.08203 C 1679.1351 529.95712 1692.4343 547.01182 1704.709 552.41602 C 1716.9837 557.82029 1719.7292 566.82707 1729.4238 560.39844 C 1739.1184 553.96988 1737.6636 556.02165 1736.8516 547.75586 C 1736.0395 539.49018 1745.2594 557.31314 1746.1211 560.24609 C 1746.9828 563.17908 1749.4267 570.06372 1753.5938 572.125 C 1757.7608 574.18639 1765.5645 590.57351 1767.5742 596.54883 C 1769.5838 602.52419 1777.7128 608.7528 1786.9062 612.69141 C 1796.0996 616.62998 1796.7519 622.88743 1811.5859 621.45117 C 1826.42 620.01533 1826.1449 624.5028 1838.3145 617.00781 C 1850.484 609.5129 1849.1512 609.38498 1856.2227 608.77148 C 1863.294 608.15795 1864.9455 599.87396 1865.1738 592.7793 C 1865.4017 585.68482 1866.3623 589.85187 1868.8008 595.20508 C 1871.2404 600.55806 1867.1572 602.94442 1872.0254 606.37695 C 1876.8937 609.80952 1886.5924 621.01366 1889.8496 630.67969 C 1893.1071 640.34564 1900.4015 652.20774 1901.0723 660.75586 C 1901.743 669.30409 1903.5334 671.41827 1906.0605 670.67578 C 1908.5877 669.93329 1909.8856 671.78164 1913.127 669.02734 C 1916.3684 666.27309 1910.6387 679.66951 1909.166 677.90039 C 1907.6934 676.13131 1918.3167 701.76857 1925.2422 709.68555 C 1932.1677 717.60256 1927.849 723.3022 1942.7891 735.12891 C 1957.729 746.95561 1984.2336 761.08497 2002.3926 741.90039 C 2020.5515 722.71574 2029.3834 713.79782 2038.5586 708.70898 C 2047.7338 703.62019 2052.808 692.01843 2054.1133 685.97266 C 2055.4186 679.92681 2057.1445 684.88008 2062.3867 691.75977 C 2067.629 698.63956 2071.694 712.29145 2078.0898 719.74805 C 2084.4857 727.20456 2077.093 730.98285 2086.0059 753.0918 C 2094.9188 775.20071 2093.7566 765.87475 2097.7422 765.14258 C 2101.7277 764.41052 2099.3151 771.67873 2096.8105 774.95312 C 2094.306 778.22748 2096.0688 784.376 2102.2207 801.99219 C 2108.3727 819.60834 2100.9424 819.11097 2111.7988 832.90625 C 2122.6554 846.70137 2114.1742 847.66834 2124.377 847.29492 C 2134.5798 846.92147 2135.1336 850.14158 2130.3242 854.23828 C 2125.5149 858.33487 2125.6141 865.02338 2131.0566 882.01172 C 2136.4994 899.00001 2131.9959 906.64109 2152.8457 924.39062 C 2173.6954 942.14023 2179.4605 949.27209 2195.8223 940.13281 C 2212.1842 930.9935 2231.9915 921.98997 2246.0879 909.9668 C 2260.1842 897.94363 2276.7727 882.48475 2280.5156 874.91016 C 2284.2585 867.33561 2286.3968 875.10637 2288.1387 880.05078 C 2289.88 884.99486 2298.5817 882.92696 2307.0547 880.4375 C 2315.5276 877.94811 2341.8977 866.21547 2349.9785 856.66211 C 2358.0594 847.10882 2374.7881 834.30285 2381.1738 827.37305 C 2387.5594 820.44328 2376.6728 843.88775 2404.9277 841.30078 C 2433.1827 838.71396 2462.4424 825.44333 2472.6152 821.0293 C 2482.7881 816.61534 2515.8255 810.51068 2518.8613 805.06445 C 2521.8969 799.61831 2524.0151 802.8797 2524.1641 809.30078 C 2524.3128 815.72197 2524.7851 845.2768 2518.2695 858.31836 C 2511.754 871.35992 2512.1412 873.45307 2514.9766 875.3457 C 2517.812 877.23838 2517.4298 890.16536 2518.1152 895.08789 C 2518.8006 900.01035 2514.6925 905.28002 2522.8574 916.28906 C 2531.0223 927.29758 2527.268 928.70012 2534.2793 925.66406 C 2541.2905 922.62804 2532.3619 930.62834 2532.4023 936.30859 C 2532.4429 941.98896 2535.7059 955.00565 2534.2695 962.23438 C 2532.8331 969.46306 2538.9311 992.28475 2554.75 987.55078 C 2570.5691 982.81738 2568.2969 978.03516 2568.2969 978.03516 C 2568.2969 978.03516 2571.9524 986.63601 2565.1992 995.63477 C 2558.4432 1004.6344 2560.2592 1018.7294 2564.7188 1026.0234 C 2569.1783 1033.3175 2561.2157 1035.2921 2562.5449 1039.8164 C 2563.8742 1044.3408 2563.8141 1072.5437 2578.6055 1094.3359 C 2593.3967 1116.1282 2586.661 1105.4567 2593.7168 1112.3301 C 2600.7726 1119.2035 2605.5381 1131.5662 2613.0723 1124.4844 C 2620.6065 1117.4026 2619.5996 1134.6648 2619.1484 1142.0391 C 2618.6973 1149.4133 2619.3025 1158.6543 2610.2422 1171.2227 C 2601.182 1183.7909 2612.7672 1206.4021 2619.4746 1210.7871 C 2626.1819 1215.1719 2632.9844 1213.541 2632.9844 1213.541 C 2632.9844 1213.541 2596.8233 1256.0433 2603.1113 1274.123 C 2609.3994 1292.2029 2603.2365 1294.6114 2616.4609 1292.7773 C 2629.6854 1290.9432 2602.858 1303.0402 2601.6719 1315.7285 C 2600.4857 1328.4167 2591.8478 1346.1894 2601.7871 1356.1367 C 2611.7264 1366.0842 2616.151 1381.4074 2640.9609 1375.9883 C 2665.7709 1370.5693 2661.0399 1382.0023 2670.1895 1368.4902 C 2679.339 1354.9782 2671.3149 1380.2443 2665.8555 1386.5938 C 2660.396 1392.9433 2663.1222 1416.0968 2643.5449 1434.8516 C 2623.9676 1453.6062 2607.3295 1472.1125 2617.4492 1473.9922 C 2627.5689 1475.8719 2613.3133 1479.0855 2610.5332 1479.9023 C 2607.7531 1480.7191 2583.678 1496.0291 2577.7969 1507.2812 C 2571.9158 1518.5334 2567.5781 1523.0024 2561.6445 1533.4414 C 2555.7112 1543.8803 2547.1122 1551.4215 2561.3027 1564.752 C 2575.4933 1578.0823 2583.2119 1581.6421 2587.3145 1578.043 C 2591.4171 1574.4438 2589.046 1581.5102 2592.2598 1582.0137 C 2595.4734 1582.5173 2594.6678 1586.3468 2619.6348 1591.125 C 2619.6348 1591.125 2623.146 1597.8488 2640.7207 1595.0352 C 2658.2955 1592.2216 2637.3943 1604.0943 2634.8555 1612.6934 C 2632.3165 1621.2924 2588.9562 1662.2232 2582.5449 1669.457 C 2576.1337 1676.6908 2574.1117 1681.1776 2579.2188 1682.7422 C 2584.3257 1684.3069 2574.265 1686.4332 2561.9785 1690.1738 C 2549.6921 1693.9144 2519.1092 1717.4496 2510.8105 1728.1934 C 2502.512 1738.9371 2502.039 1742.1618 2510.7598 1744.3301 C 2519.4805 1746.4984 2509.8851 1749.4359 2498.5547 1750.2285 C 2487.2243 1751.0216 2458.9168 1756.0755 2449.4531 1764.1719 C 2439.9895 1772.2681 2446.2221 1762.4767 2413.0156 1772.748 C 2379.8091 1783.0193 2344.4559 1795.6042 2346.8613 1810.9844 C 2348.3291 1820.3701 2349.6677 1823.0243 2350.4902 1823.6777 C 2350.6914 1823.6868 2351.332 1823.7031 2351.332 1823.7031 C 2351.332 1823.7031 2351.0156 1824.0951 2350.4902 1823.6777 C 2348.3968 1823.5837 2336.214 1823.2046 2318.4023 1826.5664 C 2298.879 1830.2515 2266.3101 1848.8528 2272.1152 1852.2168 C 2277.9203 1855.5807 2279.2005 1859.8983 2266.2715 1859.4258 C 2253.3424 1858.9533 2192.0968 1896.0341 2165.4434 1923.5215 C 2138.79 1951.0089 2116.9008 1952.1646 2088.6406 1994.2773 C 2060.3806 2036.3902 2063.8027 2047.4434 2063.8027 2047.4434 C 2063.8027 2047.4434 2078.5871 2106.166 2076.8262 2146.5684 C 2075.0653 2186.9708 2079.864 2236.1751 2071.957 2253.2754 C 2071.957 2253.2754 2066.4618 2307.0026 2053.4297 2333.4277 C 2040.3976 2359.8528 2040.7761 2374.0832 2040.6445 2390.2012 C 2040.513 2406.317 2038.1733 2406.6974 2031.957 2411.0059 C 2031.957 2411.0059 2015.19 2407.6067 2015.3359 2412.8281 C 2015.4819 2418.0496 2004.8809 2419.6328 2004.8809 2419.6328 C 2004.8809 2419.6328 1985.9682 2416.8061 1984.1055 2412.4727 C 1982.2426 2408.1392 1975.5831 2410.1437 1976.1914 2403.3145 C 1976.7997 2396.485 1980.6865 2378.8222 1984.4082 2376.5801 C 1988.1298 2374.3381 2014.5794 2360.1422 2016.2832 2346.0449 C 2017.987 2331.9478 2041.3465 2299.0185 2041.1953 2292.0566 C 2041.0441 2285.0949 2054.9035 2256.5058 2054.9375 2227.9629 C 2054.973 2199.42 2056.8121 2123.6859 2052.918 2108.127 C 2049.0238 2092.568 2046.9088 2072.8076 2045.9043 2069.3887 C 2045.9043 2069.3887 2019.3525 2039.313 1982.9883 2021.6699 C 1946.6242 2004.0269 1856.2171 1992.8339 1839.1855 1997.8379 C 1822.154 2002.8419 1801.4366 1994.0955 1792.0332 1994.1816 C 1782.6298 1994.2677 1702.2002 1997.7874 1652.2773 2016.6562 C 1602.3546 2035.5251 1598.6189 2027.0177 1595.6465 2032.2754 C 1592.6741 2037.5332 1593.0364 2041.3601 1572.9629 2045.2852 C 1552.8894 2049.2101 1540.055 2059.0049 1532.9629 2059.5469 C 1525.8708 2060.089 1474.3419 2070.424 1469.5 2078.4805 C 1464.6582 2086.5369 1463.6534 2079.2241 1462.082 2076.9336 C 1460.5108 2074.6431 1429.4348 2076.3291 1420.0625 2076.5781 C 1410.6902 2076.827 1392.021 2073.0746 1385.9961 2068.9688 C 1379.9713 2064.863 1368.3828 2068.377 1368.3828 2068.377 C 1368.3828 2068.377 1367.2869 2067.2571 1377.1914 2062.4902 C 1387.096 2057.7233 1387.173 2033.7181 1389.1426 2030.4238 C 1391.1122 2027.1294 1412.8558 2016.796 1412.8594 2011.7949 C 1412.863 2006.794 1425.6108 1987.7611 1401.627 1979.3008 C 1377.6432 1970.8404 1345.7459 1967.7857 1315.8652 1965.9844 C 1285.9845 1964.1829 1268.4644 1962.9178 1268.3926 1959.7246 C 1268.3208 1956.5314 1269.4561 1954.8556 1267.8945 1950.8789 C 1266.3329 1946.9022 1270.0905 1954.1668 1273.8906 1951.375 C 1277.6908 1948.5832 1273.4502 1932.5033 1269.0137 1931.709 C 1264.5773 1930.9146 1255.4449 1918.3655 1238.0195 1916.0234 C 1220.5942 1913.6813 1204.3274 1912.3497 1200.5547 1911.9375 C 1196.7819 1911.5255 1169.1297 1894.4256 1157.2051 1892.0762 C 1145.2805 1889.7266 1113.9956 1878.4006 1116.5117 1872.4707 C 1119.028 1866.5409 1124.1263 1864.2733 1121.4902 1859.2559 C 1118.854 1854.2384 1114.2674 1842.636 1123.1602 1835.377 C 1132.0529 1828.118 1150.5047 1819.9436 1155.7988 1811.1152 C 1161.0931 1802.2869 1160.7543 1798.3739 1169.8477 1788.543 C 1178.941 1778.7121 1185.8562 1771.5134 1177.877 1757.8301 C 1169.8977 1744.1468 1157.3193 1730.7767 1141.4355 1725.6777 C 1125.5519 1720.5788 1121.5332 1723.0352 1121.5332 1723.0352 C 1121.5332 1723.0352 1123.0325 1722.7578 1119.9336 1712.5039 C 1116.835 1702.2498 1095.1109 1683.4246 1083.4062 1681.5938 C 1071.7015 1679.7629 1048.644 1665.2279 1047.7754 1662.2715 C 1046.9067 1659.315 1040.9553 1652.3272 1044.4902 1647.6484 C 1048.025 1642.9697 1039.5391 1636.0706 1046.7617 1629.2832 C 1053.9843 1622.4958 1076.3285 1609.0746 1079.207 1592.2617 C 1082.0856 1575.4489 1085.6975 1559.327 1069.1543 1551.7832 C 1052.6111 1544.2395 1046.3391 1540.0236 1048.084 1533.9629 C 1049.8288 1527.9022 1056.6745 1519.8748 1030.4102 1501.5859 C 1004.1459 1483.297 1002.8314 1487.1856 998.97461 1488.6035 C 995.11764 1490.0214 1007.2696 1485.6478 997.31641 1481.2715 C 987.36313 1476.8952 974.26101 1468.198 969.0332 1462.5645 C 963.80532 1456.9308 960.15026 1442.6391 965.73633 1433.6133 C 971.32239 1424.5876 980.02276 1424.766 980.0957 1403.7793 C 980.16823 1382.7927 980.44172 1379.4955 968.74219 1367.9609 C 957.04277 1356.4263 942.34488 1336.1289 931.96875 1332.4961 C 921.5927 1328.8633 921.32762 1325.9812 916.54297 1324.5371 C 911.75831 1323.093 919.26889 1321.3025 922.82422 1321.5039 C 926.37947 1321.7052 934.17 1317.6597 932.05664 1308.7109 C 929.9429 1299.7623 923.04333 1267.526 910.00195 1260.6934 C 896.96069 1253.8607 895.2954 1250.1913 897.48828 1250.5156 C 899.6812 1250.8399 910.74925 1256.9451 906.64453 1244.4453 C 902.54008 1231.9454 893.00161 1204.9023 886.64062 1192.8828 C 880.27957 1180.8633 883.90736 1164.8962 878.1582 1151.9336 C 872.40879 1138.9712 873.27314 1130.7414 870.02539 1126.1406 C 866.77764 1121.5399 879.42201 1136.5621 883.13086 1131.2324 C 883.13086 1131.2324 880.8885 1138.5803 899.17578 1137.8379 C 917.4631 1137.0954 920.1953 1134.5445 927.33789 1133.3223 C 934.48263 1132.0998 1013.6484 1138.6699 1013.6484 1138.6699 C 1013.6484 1138.6699 1022.1677 1148.5112 1066.5645 1134.7773 C 1110.9611 1121.0435 1093.1008 1115.7923 1093.0781 1112.6543 C 1093.0571 1109.5163 1119.14 1133.8562 1132.6152 1134.2949 C 1146.0906 1134.7336 1169.5209 1158.4224 1201.3984 1156.4238 C 1233.276 1154.4253 1273.4621 1169.9062 1295.7227 1148.3594 C 1317.9833 1126.8126 1319.7844 1126.3784 1315.7695 1097.873 C 1311.7546 1069.3677 1316.25 998.26524 1301.3633 983.53906 C 1286.4764 968.81274 1286.9559 975.97712 1298.4434 968.51758 C 1309.9309 961.05815 1305.9605 939.01168 1304.123 932.75781 C 1302.2856 926.50387 1301.3329 903.6336 1301.7617 886.95508 C 1302.1906 870.27655 1289.6891 848.05605 1291.6094 825.45508 C 1293.5296 802.85426 1290.0162 799.17953 1294.2012 786.95117 C 1298.3862 774.72293 1297.6019 774.81042 1295.2168 768.19727 C 1292.8314 761.58415 1301.3423 776.51513 1305.1973 773.23242 C 1305.1973 773.23242 1303.723 776.81115 1323.5273 776.18945 C 1343.3317 775.5678 1353.3494 780.84638 1365.9609 765.21289 C 1378.5725 749.57944 1385.8855 743.77383 1387.5332 727.14062 C 1389.181 710.50753 1395.3938 662.53713 1397.0703 643.92383 C 1398.7469 625.31045 1398.9136 621.69077 1398.6191 613.25195 C 1398.3246 604.81306 1403.3471 619.9137 1409.1836 618.24023 C 1415.0191 616.56375 1436.0879 610.99219 1436.0879 610.99219 C 1436.0879 610.99219 1436.8945 613.12696 1442.6367 592.78906 C 1448.379 572.4512 1453.694 572.15068 1456.6797 545.87695 C 1459.6653 519.60319 1467.0346 501.76195 1462.8926 494.56055 C 1458.7506 487.35934 1452.2076 491.87111 1464.8457 486.06836 C 1477.4838 480.26558 1470.1059 475.10552 1470.957 468.46875 C 1471.8081 461.83194 1480.0008 442.90642 1478.1504 432.35742 C 1476.2999 421.80838 1482.7405 403.40788 1484.8789 398.35938 C 1487.0173 393.31091 1490.5478 385.02029 1491.0684 371.17969 C 1491.4588 360.7992 1492.5778 355.63993 1494.291 355.27539 z "
       transform="scale(0.26458333)" />
    <path
       style="display:inline;fill:none;stroke:#000000;stroke-width:0.264583px;stroke-linecap:butt;stroke-linejoin:miter;stroke-opacity:1"
       d="m 311.4167,225.5842 c 0,0 -1.20375,-0.071 -1.18745,-1.30278 0,0 0.34825,-0.55824 0.50475,-0.61965 0.15649,-0.0614 0.45213,-0.3176 0.49344,-0.47169 0.0413,-0.15409 0.095,-0.35435 0.18462,-0.42844 0.0897,-0.0741 0.64738,-1.14901 0.77108,-1.3426 0.12371,-0.1936 0.17077,-0.17038 0.27891,-0.66106 0.10815,-0.49068 0.25282,-0.62187 0.29466,-1.01503 0.0419,-0.39315 0.37245,-1.1159 0.41504,-1.73999 0,0 0.26606,-1.15896 0.29594,-1.76594 0.0299,-0.60699 0.56883,-3.71183 0.52439,-4.99915 0,0 0.39765,-7.19011 0.45722,-11.85844 0.0596,-4.66834 0.3397,-26.49246 -0.33393,-33.91846 0,0 -0.73243,-13.23065 -1.149,-16.59631 -0.41658,-3.36566 -2.28976,-6.19981 -5.55011,-7.74578 -3.26036,-1.54597 -2.50586,-1.28479 -2.92753,-1.58957 -0.42167,-0.30478 -1.3772,-0.68239 -2.76654,-0.86608 -1.38934,-0.18369 -1.4304,-0.77518 -3.2743,-0.64758 0,0 -3.52692,-0.1052 -4.53686,-0.2444 -1.00995,-0.13921 -1.4289,0.2118 -1.8841,0.2118 -0.45521,0 -3.24105,-0.0546 -4.00358,0.18979 -0.76253,0.2444 -2.08035,0.34587 -2.44012,0.34587 -0.35977,0 -2.01469,0.44243 -2.70966,0.68549 -0.69497,0.24306 -1.10149,0.0133 -3.20213,0.53343 0,0 -1.64142,0.23869 -2.69129,0.58166 -1.04988,0.34296 -3.16687,0.51823 -4.40816,0.74649 -1.24129,0.22826 -3.12481,0.1081 -3.72322,0.15049 -0.5984,0.0424 -4.01356,0.51393 -4.36099,0.41555 -0.34743,-0.0984 -2.6919,-0.30137 -3.74688,-1.21794 0,0 -0.97027,-1.57035 -1.54891,-2.24029 0,0 -0.63623,-1.04068 -0.62818,-1.73713 0.008,-0.69646 0.38452,-3.95313 0.27317,-4.20206 0,0 0.15084,-1.03415 -0.81173,-3.10765 0,0 -0.0974,-0.46403 -0.0274,-1.08349 0.07,-0.61948 -0.11415,-2.28337 1.03634,-3.05706 1.1505,-0.77369 2.21046,-0.79548 3.11739,-1.86887 0,0 1.24874,-0.62867 1.71709,-1.21376 0.46835,-0.5851 0.0353,-2.07087 -0.65279,-2.62476 -0.68813,-0.55389 0.0498,-0.48912 -0.56577,-1.44613 -0.61562,-0.957 -0.52359,-1.78512 -0.62225,-3.60066 -0.0987,-1.81554 0.2105,-2.27836 1.6873,-3.84611 1.47679,-1.56774 1.92962,-2.27184 2.01453,-2.56746 0.0849,-0.29562 0.44879,-0.59564 0.70724,-1.03785 0.25845,-0.44221 1.68557,-0.5216 2.70714,-1.3211 1.02156,-0.7995 1.71576,-2.39616 2.08116,-3.19204 0.36541,-0.79588 1.4649,-1.39559 2.41231,-3.032257 0.94741,-1.63667 1.30403,-3.02497 1.84193,-3.32043 0.53791,-0.29546 2.43594,-0.74053 3.00013,-1.133 0.56419,-0.39247 1.29788,-0.70581 1.39535,-0.85432 0.0975,-0.14851 0.0178,-0.38967 0.95657,-0.77145 0.93879,-0.38177 2.37449,-1.9544 2.80559,-2.67762 0.4311,-0.72322 0.41366,-0.91989 1.89735,-1.32098 1.48369,-0.4011 2.21336,-0.46869 2.97445,-0.8402 0,0 0.48531,0.0658 0.81418,-0.0454 0.32888,-0.11121 0.46649,-0.21272 0.58649,-0.21272 0.12,0 0.59475,0.13377 0.87207,-0.001 0.27731,-0.13471 0.33015,0.0771 0.90599,-0.1134 0.57583,-0.19051 1.27183,0.0593 1.54596,-0.0652 0.27413,-0.12446 0.82249,0.083 1.36564,0.0403 0,0 0.61956,0.61662 1.08631,0.42158 0.46675,-0.19504 1.02215,-0.66975 2.05774,-1.60857 1.0356,-0.93883 0.98019,-0.24998 2.68603,-1.33325 0,0 0.51596,-0.11919 1.19858,-0.35389 0.68261,-0.2347 1.15582,-0.62898 1.5479,-0.64913 0.39208,-0.0201 1.18644,-0.008 1.45316,-0.23517 0.26672,-0.2273 0.18393,0.11721 1.15921,-0.23182 0.97529,-0.34903 1.78729,0.61706 1.80633,0.85786 0.019,0.24079 0.33131,0.39295 0.50187,1.40683 0.17057,1.01386 0.12773,1.99044 0.79556,2.15876 0.66783,0.16831 0.8277,0.12691 1.27322,-1.33781 0,0 0.95251,-1.16709 1.3613,-2.00644 0.40878,-0.83935 2.47124,-1.33274 3.34646,-1.93997 0.87523,-0.60724 2.24768,-0.48321 2.85604,-0.43867 0.60836,0.0445 1.33602,0.77945 1.69768,0.77293 0.36167,-0.007 1.18981,1.25369 1.67323,1.22435 0.48343,-0.0293 1.09291,0.29472 2.73078,-0.70802 1.63788,-1.00273 2.10172,0.27117 2.67268,0.27117 0,0 0.75652,0.48258 1.82756,0.3887 0,0 0.54756,0.41158 0.96162,0.28473 0.41405,-0.12685 2.25152,0.95925 2.4712,1.03112 0.21967,0.0719 1.11323,0.86349 1.47577,0.90802 0,0 0.41094,0.72952 0.68774,0.72952 0.27681,0 0.43858,0.99678 0.92163,1.18939 0,0 0.24947,0.9189 0.52777,1.22522 0.27831,0.30632 0.16148,1.34453 0.88055,1.00295 0.71908,-0.34159 1.55718,-0.97144 2.25676,-1.09034 0.69959,-0.11889 2.44989,-0.24505 2.83537,-0.15924 0.38548,0.0858 0.81001,-0.0424 0.97928,-0.0999 0.16927,-0.0575 0.83817,0.25651 1.33016,0.0668 0,0 0.81489,0.41548 1.06769,0.34923 0.25279,-0.0662 2.02302,1.77684 2.2948,2.20928 0.27179,0.43244 1.19265,1.46171 1.54281,1.50597 0.35017,0.0443 0.43951,1.48758 0.46163,2.05454 0.0221,0.56696 0.70936,0.70098 1.36165,0.91731 0.65229,0.21634 1.38322,0.68451 1.64578,1.24224 0.26256,0.55772 0.28028,1.07355 1.14692,2.04405 0.86664,0.970497 0.61069,0.555967 0.73944,0.894267 0.12875,0.33829 0.0367,0.58631 0.9291,1.3165 0.89241,0.73019 2.12775,1.97995 2.88303,3.12757 0.75528,1.14761 1.14382,1.83619 1.23571,2.6259 0.0919,0.78971 -1.01904,1.43391 -1.18467,2.15818 -0.16566,0.72427 -0.0811,0.92619 1.05026,1.61742 1.13136,0.69122 0.46056,-0.27238 1.75768,1.22328 0,0 0.26356,0.40626 0.11314,1.5174 0,0 0.0594,0.28274 -0.0709,0.53909 -0.13022,0.25636 0.0199,0.37861 0.16391,0.6561 0.1441,0.27749 -0.1167,0.3498 -0.11109,0.55581 0.006,0.20601 0.068,0.53092 0.1725,0.67874 0.10454,0.14782 -0.18505,0.20591 -0.28765,0.68208 -0.10261,0.47616 -0.61844,0.68795 -0.67392,1.12602 -0.0555,0.43807 -1.24325,0.93486 -1.91839,1.16236 -0.67516,0.2275 -2.42216,0.7338 -3.10655,1.07728 -0.68438,0.34349 -4.58558,1.85157 -5.65892,2.01443 -1.07333,0.16285 -2.72278,0.92275 -3.82633,1.18678 -1.10354,0.26403 -3.2033,0.93316 -3.71094,1.13971 -0.50764,0.20654 -2.24398,0.17495 -3.38472,0.73805 -1.14074,0.5631 -2.46423,0.51388 -2.96391,0.7628 -0.49968,0.24893 -1.51636,0.27475 -1.7809,0.38673 -0.26454,0.11197 -1.61305,0.63865 -2.18588,0.89652 -0.57283,0.25787 -1.43047,0.43359 -1.78468,0.3786 -0.35422,-0.055 -1.713,0.80327 -2.34265,1.02938 -0.62966,0.22613 -2.9769,1.04634 -4.05992,1.8068 -1.08301,0.76046 -2.27613,1.26769 -4.6449,3.60959 -2.36878,2.3419 -2.5449,3.68774 -2.95016,5.20379 -0.40526,1.51606 -0.77681,3.49779 -0.8659,5.07305 -0.0891,1.57526 0.11336,8.40523 0.39584,10.19525 0.28248,1.79001 0.39276,7.23399 0.57057,12.96075 0.17781,5.72677 0.62051,15.5509 0.41932,20.66639 -0.20119,5.11549 0.1043,10.71505 -0.17302,18.13414 0,0 -0.0509,0.43736 -0.51592,5.26618 -0.46503,4.82882 -0.13673,3.84905 -0.60253,6.83235 -0.4658,2.9833 -1.625,5.15669 -1.50451,5.90205 0,0 -0.0244,0.0943 0.14484,0.1283 0.16925,0.034 -0.0555,0.30284 -0.20061,0.37763 -0.14508,0.0748 -0.18431,0.19369 -0.27407,0.22567 -0.0898,0.032 -0.54976,-0.077 -0.56873,-0.14168 -0.019,-0.0647 -0.27809,-0.0113 -0.27809,0.073 0,0.0844 -0.47203,0.0996 -0.57457,0.0425 -0.10254,-0.0571 -0.13369,-0.25269 -0.13369,-0.25269 z"
       id="path373-7" />
  </g>
  <g
     inkscape:label="Layer 1"
     inkscape:groupmode="layer"
     id="layer1"
     style="display:inline" />
</svg>
