<?xml version="1.0" encoding="UTF-8" standalone="no"?>
<svg
   xmlns:dc="http://purl.org/dc/elements/1.1/"
   xmlns:cc="http://creativecommons.org/ns#"
   xmlns:rdf="http://www.w3.org/1999/02/22-rdf-syntax-ns#"
   xmlns:svg="http://www.w3.org/2000/svg"
   xmlns="http://www.w3.org/2000/svg"
   xmlns:sodipodi="http://sodipodi.sourceforge.net/DTD/sodipodi-0.dtd"
   xmlns:inkscape="http://www.inkscape.org/namespaces/inkscape"
   width="1024mm"
   height="768mm"
   viewBox="0 0 1024 768"
   version="1.1"
   id="svg286"
   inkscape:version="1.0.1 (0767f8302a, 2020-10-17)"
   sodipodi:docname="leaf-01.svg">
  <defs
     id="defs280" />
  <sodipodi:namedview
     id="base"
     pagecolor="#ffffff"
     bordercolor="#666666"
     borderopacity="1.0"
     inkscape:pageopacity="0.0"
     inkscape:pageshadow="2"
     inkscape:zoom="0.175"
     inkscape:cx="1199.0282"
     inkscape:cy="1659.8661"
     inkscape:document-units="mm"
     inkscape:current-layer="layer5"
     inkscape:document-rotation="0"
     showgrid="false"
     inkscape:window-width="2022"
     inkscape:window-height="1253"
     inkscape:window-x="38"
     inkscape:window-y="65"
     inkscape:window-maximized="0" />
  <metadata
     id="metadata283">
    <rdf:RDF>
      <cc:Work
         rdf:about="">
        <dc:format>image/svg+xml</dc:format>
        <dc:type
           rdf:resource="http://purl.org/dc/dcmitype/StillImage" />
        <dc:title></dc:title>
      </cc:Work>
    </rdf:RDF>
  </metadata>
  <g
     inkscape:groupmode="layer"
     id="layer5"
     inkscape:label="Layer 2"
     style="display:inline">
    <path
       id="rect295"
       style="fill:#000000;stroke-width:0.992054"
       d="M 0 0 L 0 2902.6777 L 3870.2363 2902.6777 L 3870.2363 0 L 0 0 z M 1748.2168 382.16992 C 1757.9553 382.05039 1780.1727 397.99884 1787.5664 408.61719 C 1796.6663 421.68592 1801.2349 441.04018 1828.0195 469.47852 C 1854.8041 497.91685 1918.7113 424.23272 1932.6562 418.80664 C 1946.6011 413.38052 2004.9026 380.80305 2025.0762 386.58984 C 2045.2498 392.3766 2058.9064 388.89869 2054.3438 401.36523 C 2054.3438 401.36523 2051.3798 408.66786 2071.084 398.09766 C 2090.7882 387.52745 2140.5321 411.91383 2146.7754 431.29102 C 2146.7754 431.29102 2160.0468 442.17028 2180.9043 490.2207 C 2201.7618 538.27108 2186.6235 643.72794 2175.1797 661.17383 C 2163.736 678.61971 2138.9583 739.87052 2123.2793 766.41406 C 2107.6004 792.95757 2083.2605 824.93266 2080.0781 830.59375 C 2076.8958 836.25484 2073.4962 858.25528 2083.3184 867.46289 C 2093.1403 876.6705 2125.8373 865.77108 2138.6582 849.18164 C 2138.6582 849.18164 2243.7456 786.05328 2264.0566 781.72852 C 2284.3676 777.40379 2387.5461 754.13376 2408.707 763.03516 C 2408.707 763.03516 2433.8713 766.43241 2430.7422 776.36523 C 2430.7422 776.36523 2449.1831 775.94878 2452.4453 787.60938 C 2455.7074 799.26997 2467.5108 794.17785 2465.543 821.50391 C 2463.5753 848.82993 2468.778 866.41441 2441.2812 916.30859 C 2413.7844 966.20282 2367.7195 1021.6994 2331.2188 1050.0137 C 2294.718 1078.328 2239.644 1114.6365 2221.1191 1123.0215 C 2202.5942 1131.4066 2152.5971 1151.8347 2133.0957 1167.8008 C 2113.5943 1183.7669 2061.6502 1222.0466 2050.5371 1226.6895 C 2039.424 1231.3323 2028.8632 1236.7363 2029.6562 1238.7422 C 2030.4493 1240.7481 2041.8773 1245.6764 2050.3789 1244.3379 C 2058.8805 1242.9993 2057.4764 1246.4653 2065.3438 1244.0156 C 2073.2111 1241.5662 2134.1582 1223.1741 2160.4512 1222.1328 C 2186.7441 1221.0915 2268.4802 1202.9493 2316.5293 1212.123 C 2364.5783 1221.2968 2374.0324 1223.627 2387.7266 1223.627 C 2401.4207 1223.627 2447.3824 1238.4871 2453.8574 1262.7949 C 2453.8574 1262.7949 2457.0922 1271.7817 2451.5156 1277.1484 C 2451.5156 1277.1484 2446.0577 1279.7666 2451.6738 1281.7344 C 2457.2901 1283.7022 2464.9815 1285.2441 2461.9219 1297.498 C 2458.8624 1309.752 2463.0605 1327.5652 2439.0293 1350.4746 C 2414.9981 1373.3841 2414.4299 1375.7307 2388.0918 1390.0488 C 2361.7538 1404.367 2338.4072 1405.2675 2330.2578 1419.4609 C 2330.2578 1419.4609 2286.4293 1443.3265 2259.9727 1451.2168 C 2233.516 1459.1071 2228.1246 1457.1184 2187.9883 1472.9688 C 2147.8521 1488.8193 2075.6306 1495.0458 2029.5918 1514.7441 C 1983.553 1534.4425 1962.5252 1528.5821 1925.4434 1545.8945 C 1888.3615 1563.207 1838.7583 1586.1541 1817.2227 1600.75 C 1795.6871 1615.3459 1771.515 1644.3787 1757.4043 1670.4922 C 1743.2936 1696.6058 1775.0869 1696.9568 1794.8574 1699.7793 C 1814.6279 1702.6018 1860.3768 1689.3848 1904.5684 1699.834 C 1948.7601 1710.2832 1948.929 1712.5561 1964.9199 1728.1406 C 1964.9199 1728.1406 1968.4166 1730.3537 1964.5332 1741.8477 C 1964.5332 1741.8477 1963.6602 1743.7849 1968.8496 1747.9062 C 1974.039 1752.0276 1961.1472 1776.1164 1953.1426 1783.1387 C 1945.138 1790.161 1915.6906 1820.5366 1888.2578 1833.9062 C 1860.8249 1847.276 1857.6284 1840.2748 1849.0293 1851.6895 C 1849.0293 1851.6895 1839.6462 1855.8856 1824.3301 1856.6699 C 1809.014 1857.4543 1774.8581 1860.8857 1768.7988 1866.1914 C 1762.7394 1871.4972 1730.1273 1872.3193 1720.5176 1873.1191 C 1710.9079 1873.9189 1713.5861 1880.735 1707.2207 1883.8809 C 1700.8553 1887.0267 1662.0531 1904.3966 1656.1484 1911.1641 C 1650.2438 1917.9316 1622.6747 1927.7764 1610.8008 1945.8574 C 1610.8008 1945.8574 1602.9395 1949.3759 1590.6855 1964.2305 C 1578.4317 1979.085 1516.9232 2013.5725 1499.5898 2033.0859 C 1499.5898 2033.0859 1475.09 2041.1203 1462.7012 2055.8574 C 1450.3123 2070.5945 1417.4094 2077.9283 1408.707 2091.7793 C 1408.707 2091.7793 1394.3033 2096.101 1377.2969 2114.2695 C 1360.2904 2132.4381 1341.3281 2161.2783 1315.5566 2199.5215 C 1289.7851 2237.7647 1280.1029 2247.683 1278.6816 2257.7109 C 1277.2605 2267.7387 1271.5171 2267.602 1264.9043 2270.4238 C 1258.2915 2273.2459 1256.8574 2308.7559 1256.8574 2308.7559 L 1232.7227 2310.3711 C 1232.7227 2310.3711 1227.6128 2277.3096 1244.291 2258.2227 C 1260.9692 2239.1357 1284.3615 2223.0507 1299.6836 2193.3633 C 1299.6836 2193.3633 1350.3089 2112.0184 1355.9434 2105.3691 C 1361.5779 2098.7198 1368.7172 2085.4123 1370.6621 2076.125 C 1372.6071 2066.8377 1400.8595 1978.3037 1401.4766 1964.6523 C 1402.0936 1951.0011 1432.4058 1862.9086 1433.793 1858.2637 C 1435.1801 1853.6189 1441.0472 1837.781 1443.041 1832.3516 C 1445.0349 1826.9221 1484.876 1689.1278 1471.5391 1603.0859 C 1458.2021 1517.044 1440.4085 1478.4785 1407.8672 1418.375 C 1375.3258 1358.2714 1371.822 1347.756 1366.627 1327.9473 C 1361.432 1308.1385 1364.1215 1276.2612 1368.4141 1262.3613 C 1372.7067 1248.4615 1381.8839 1246.1844 1387.1484 1245.8027 C 1392.4129 1245.421 1393.5415 1241.1063 1399.6152 1236.377 C 1405.6889 1231.6476 1439.1149 1238.1985 1460.3828 1253.957 C 1481.6507 1269.7155 1495.8352 1278.2845 1507.7188 1291.9199 C 1519.6023 1305.5553 1532.611 1314.927 1541.2871 1333.8691 C 1549.9632 1352.8113 1585.2428 1398.6402 1589.4316 1399.9805 C 1593.6204 1401.3208 1628.554 1427.6316 1637.3945 1391 C 1646.235 1354.3684 1633.1504 1305.0183 1621.4082 1292.3457 C 1609.6659 1279.6731 1568.9065 1169.3779 1547.2734 1139.2148 C 1525.6404 1109.0518 1513.3145 1064.925 1496.9492 1019.0469 C 1480.5839 973.1687 1435.6281 898.09465 1418.7891 884.48242 C 1401.9501 870.87019 1393.9803 843.25778 1398.5684 823.49414 C 1398.5684 823.49414 1412.2096 818.77818 1408.2168 796.80469 C 1404.224 774.83116 1382.1521 720.16721 1386.5 708.99609 C 1390.8479 697.82498 1375.0785 681.88072 1406.8789 663.00977 C 1406.8789 663.00977 1416.9126 654.48936 1419.3438 650.32617 C 1421.7748 646.16295 1455.2282 647.19566 1468.0293 653.50195 C 1480.8303 659.80825 1526.8796 690.24132 1539.8262 706.16602 C 1552.7728 722.09075 1586.8286 809.37336 1593.375 817.82227 C 1599.9214 826.27117 1606.4049 852.51792 1611.7949 855.66211 C 1617.1849 858.80634 1631.9319 880.63464 1652.6484 906.05469 C 1673.365 931.47469 1705.1051 960.63036 1713.7422 959.9375 C 1722.3793 959.24464 1743.2023 960.41688 1731.8594 907.37109 C 1720.5165 854.32535 1694.9241 819.69751 1696.4414 795.61523 C 1697.9587 771.53292 1679.0248 739.12545 1680.4941 719.03125 C 1681.9634 698.93709 1672.3401 673.01455 1677.7637 644.85352 C 1683.1872 616.69244 1686.8087 547.60291 1680.8828 507.28125 C 1674.9569 466.95955 1711.0324 400.4569 1717.8359 395.17773 C 1724.6395 389.89853 1726.6229 386.51541 1738.832 390.05664 C 1738.832 390.05664 1740.6972 395.76096 1743.8047 385.08398 C 1744.3874 383.08204 1745.9695 382.19751 1748.2168 382.16992 z "
       transform="scale(0.26458333)" />
  </g>
  <g
     inkscape:label="Layer 1"
     inkscape:groupmode="layer"
     id="layer1" />
</svg>
