<?xml version="1.0" encoding="UTF-8" standalone="no"?>
<svg
   xmlns:dc="http://purl.org/dc/elements/1.1/"
   xmlns:cc="http://creativecommons.org/ns#"
   xmlns:rdf="http://www.w3.org/1999/02/22-rdf-syntax-ns#"
   xmlns:svg="http://www.w3.org/2000/svg"
   xmlns="http://www.w3.org/2000/svg"
   xmlns:sodipodi="http://sodipodi.sourceforge.net/DTD/sodipodi-0.dtd"
   xmlns:inkscape="http://www.inkscape.org/namespaces/inkscape"
   width="1024mm"
   height="768mm"
   viewBox="0 0 1024 768"
   version="1.1"
   id="svg286"
   sodipodi:docname="leaf-02.svg"
   inkscape:version="1.0.1 (0767f8302a, 2020-10-17)">
  <defs
     id="defs280" />
  <sodipodi:namedview
     id="base"
     pagecolor="#ffffff"
     bordercolor="#666666"
     borderopacity="1.0"
     inkscape:pageopacity="0.0"
     inkscape:pageshadow="2"
     inkscape:zoom="0.175"
     inkscape:cx="1199.0282"
     inkscape:cy="1659.8661"
     inkscape:document-units="mm"
     inkscape:current-layer="layer5"
     inkscape:document-rotation="0"
     showgrid="false"
     inkscape:window-width="2022"
     inkscape:window-height="1253"
     inkscape:window-x="38"
     inkscape:window-y="65"
     inkscape:window-maximized="0" />
  <metadata
     id="metadata283">
    <rdf:RDF>
      <cc:Work
         rdf:about="">
        <dc:format>image/svg+xml</dc:format>
        <dc:type
           rdf:resource="http://purl.org/dc/dcmitype/StillImage" />
        <dc:title></dc:title>
      </cc:Work>
    </rdf:RDF>
  </metadata>
  <g
     inkscape:groupmode="layer"
     id="layer5"
     inkscape:label="Layer 2"
     style="display:inline">
    <path
       id="rect295"
       style="fill:#000000;stroke-width:0.992054"
       d="M 0 0 L 0 2902.6777 L 3870.2363 2902.6777 L 3870.2363 0 L 0 0 z M 1657.752 616.50781 C 1673.6955 616.5807 1697.9023 626.31445 1697.9023 626.31445 C 1697.9023 626.31445 1763.5192 654.42904 1777.3711 650.39844 C 1777.3711 650.39844 1783.818 665.43177 1804.457 651.19531 C 1825.0956 636.95832 1809.3695 643.11123 1824.1133 632.91406 C 1838.8573 622.71758 1856.378 652.25648 1873.2949 657.02734 C 1890.2115 661.79817 1922.1647 699.82271 1957.1934 696.88477 C 1992.2217 693.94675 1978.9586 708.39137 2003.4102 678.99609 C 2027.8617 649.60082 2031.3708 695.88247 2069.9199 720.125 C 2108.4693 744.36704 2100.9852 751.02386 2117.7227 738.35156 C 2117.7227 738.35156 2138.3812 708.11177 2152.8711 737.59961 C 2152.8711 737.59961 2159.524 749.098 2167.4629 751.54102 C 2167.4629 751.54102 2163.9545 765.74395 2173.041 769.07617 C 2182.1273 772.40847 2186.8206 791.81256 2195.1035 799.28711 C 2203.3863 806.7615 2208.8812 811.29703 2228.1094 807.3125 C 2247.3375 803.32793 2242.1815 816.39012 2260.627 836.20312 C 2279.0724 856.01613 2269.7805 874.10116 2307.623 867.08008 C 2307.623 867.08008 2315.1266 868.60275 2326.748 859.59961 C 2338.3688 850.59564 2341.2553 875.32685 2355.7285 898.78906 C 2370.2019 922.25112 2377.5322 920.7564 2376.6445 934.06445 C 2375.757 947.3727 2374.523 953.64785 2384.7617 955.29883 C 2395.0005 956.94984 2384.2326 977.62114 2421.7441 972.07812 C 2459.2555 966.53526 2441.8645 978.3979 2444.6914 984.63477 C 2444.6914 984.63477 2452.241 1000.1864 2449.0391 1021.7109 C 2445.837 1043.2353 2460.3533 1045.8609 2463.2988 1062.918 C 2466.2442 1079.9752 2469.9811 1114.1508 2497.0078 1127.4199 C 2524.0343 1140.6893 2522.9745 1137.3043 2535.9863 1135.084 C 2548.9979 1132.8638 2541.1326 1159.7818 2535.002 1193.7422 C 2528.8713 1227.7029 2508.8336 1256.2034 2518.1211 1270.4629 C 2527.4092 1284.7223 2529.2267 1287.6274 2519.5098 1304.209 C 2509.7934 1320.7901 2470.9971 1378.1094 2484.8887 1388.7539 C 2498.7802 1399.3984 2494.438 1411.9833 2485.1172 1423.8027 C 2475.7964 1435.622 2438.34 1468.9468 2432.123 1492.4141 C 2425.9058 1515.8813 2400.4573 1522.7345 2355.1504 1568.1738 C 2309.8431 1613.6131 2301.6552 1600.083 2284.3594 1608.3867 C 2267.0637 1616.6904 2243.1617 1626.7575 2243.5469 1634.0664 C 2243.932 1641.3753 2297.1407 1715.8722 2319.2383 1743.6738 C 2341.3356 1771.4757 2420.1156 1897.0913 2431.5117 1913.8457 C 2442.9083 1930.5997 2510.0828 2035.2845 2546.1133 2087.0078 C 2582.1439 2138.731 2620.9087 2190.9336 2634.9375 2198.3652 C 2634.9375 2198.3652 2636.6194 2210.5385 2644.4551 2221.9805 L 2644.457 2221.9805 C 2644.457 2221.9805 2638.9966 2231.3313 2635.4219 2232.9688 C 2631.847 2234.606 2612.3751 2212.1931 2605.0293 2194.9004 C 2605.0293 2194.9004 2549.9943 2113.3749 2525.1895 2079.3398 C 2525.1895 2079.3398 2459.9365 1981.7463 2445.7207 1960.9512 C 2431.5042 1940.1563 2410.0367 1903.6857 2391.6348 1879.3613 C 2391.6348 1879.3613 2316.837 1764.5877 2301.5352 1743.123 C 2286.2332 1721.6586 2273.4702 1701.0773 2260.293 1686.4668 C 2260.293 1686.4668 2235.0747 1651.1806 2227.8359 1648.9629 C 2220.5966 1646.7453 2214.6654 1650.3793 2206.0605 1657.7207 C 2197.4557 1665.0625 2175.3247 1684.9516 2160.6914 1694.4453 C 2146.0576 1703.9383 2117.3577 1743.6481 2089.8789 1762.7324 C 2062.3997 1781.8165 2052.6695 1784.7642 2025.248 1791.3789 C 1997.8263 1797.9935 1950.3356 1823.9588 1938.9453 1831.5117 C 1927.5546 1839.064 1903.7555 1842.9762 1896.2129 1844.2734 C 1888.6702 1845.571 1863.5583 1862.1496 1841.7812 1865.2129 C 1820.0044 1868.276 1819.3547 1864.7144 1815.7188 1848.5859 C 1812.083 1832.4574 1791.729 1836.5281 1767.5312 1842.2852 C 1743.3335 1848.0421 1727.7345 1843.3191 1710.9238 1849.2168 C 1710.9238 1849.2168 1673.8494 1852.5534 1677.1914 1834.1191 C 1680.5335 1815.6846 1689.3832 1797.339 1643.1699 1789.5645 C 1596.9571 1781.7895 1599.7282 1782.8773 1587.1016 1774.8262 C 1574.4748 1766.7748 1543.5195 1771.4693 1528.5195 1755.9219 C 1513.5196 1740.3745 1525.8478 1740.4373 1530.5078 1709.959 C 1535.1681 1679.481 1495.4338 1659.7789 1490.0469 1648.0176 C 1484.661 1636.2558 1450.0658 1606.8721 1441.2422 1604.9531 C 1432.4183 1603.0342 1416.8727 1581.5039 1414.918 1577.5156 C 1412.9629 1573.5273 1418.4406 1565.3814 1422.1133 1562.1465 C 1425.7862 1558.9118 1441.6617 1549.6446 1441.4316 1540.5176 C 1441.2007 1531.3898 1435.6094 1517.1484 1421.2949 1504.4492 C 1406.9804 1491.7499 1398.0589 1481.6735 1395.7344 1478.0488 C 1393.4102 1474.424 1380.4601 1467.9317 1369.2988 1461.7168 C 1358.1377 1455.5017 1350.2195 1437.1489 1351.5215 1430.3828 C 1352.8241 1423.6161 1370.0792 1421.9655 1371.7324 1412.0488 C 1373.3856 1402.1324 1386.0145 1395.8322 1377.2246 1359.5117 C 1368.4346 1323.1912 1349.4993 1276.7638 1336.9688 1265.1641 C 1324.4384 1253.5646 1305.1813 1218.2606 1312.9062 1211.541 C 1320.6307 1204.8207 1325.339 1209.1044 1335.8887 1199.9102 C 1335.8887 1199.9102 1365.4227 1205.2236 1353.7988 1144.2051 C 1342.1749 1083.1863 1321.1935 997.58063 1328.0625 981.23633 C 1334.9315 964.89203 1323.0352 961.86181 1357.0723 956.95508 C 1391.11 952.04914 1389.2537 928.0694 1388.6621 918.89648 C 1388.0709 909.72365 1398.7734 838.00586 1398.7734 838.00586 C 1398.7734 838.00586 1415.1516 793.58982 1414.9883 780.81445 C 1414.8246 768.0392 1422.0499 754.56386 1415.9004 729.71094 C 1409.7509 704.85805 1422.0631 716.65109 1426.9414 693.97461 C 1431.8196 671.29794 1428.6384 638.80687 1423.6699 623.37109 C 1418.7011 607.93528 1440.3101 624.17573 1449.3613 624.09375 C 1458.4128 624.01173 1470.6381 636.88674 1480.3574 632.30859 C 1490.0772 627.73143 1478.3231 638.51835 1493.2578 640.51953 C 1508.1925 642.52075 1618.5801 650.74143 1626.2598 645.95508 C 1633.94 641.16948 1638.5057 636.56494 1644.7773 622.02344 C 1646.5398 617.93169 1651.5132 616.47929 1657.752 616.50781 z "
       transform="scale(0.26458333)" />
    <path
       style="display:inline;fill:none;stroke:#000000;stroke-width:0.264583px;stroke-linecap:butt;stroke-linejoin:miter;stroke-opacity:1"
       d="m 311.4167,225.5842 c 0,0 -1.20375,-0.071 -1.18745,-1.30278 0,0 0.34825,-0.55824 0.50475,-0.61965 0.15649,-0.0614 0.45213,-0.3176 0.49344,-0.47169 0.0413,-0.15409 0.095,-0.35435 0.18462,-0.42844 0.0897,-0.0741 0.64738,-1.14901 0.77108,-1.3426 0.12371,-0.1936 0.17077,-0.17038 0.27891,-0.66106 0.10815,-0.49068 0.25282,-0.62187 0.29466,-1.01503 0.0419,-0.39315 0.37245,-1.1159 0.41504,-1.73999 0,0 0.26606,-1.15896 0.29594,-1.76594 0.0299,-0.60699 0.56883,-3.71183 0.52439,-4.99915 0,0 0.39765,-7.19011 0.45722,-11.85844 0.0596,-4.66834 0.3397,-26.49246 -0.33393,-33.91846 0,0 -0.73243,-13.23065 -1.149,-16.59631 -0.41658,-3.36566 -2.28976,-6.19981 -5.55011,-7.74578 -3.26036,-1.54597 -2.50586,-1.28479 -2.92753,-1.58957 -0.42167,-0.30478 -1.3772,-0.68239 -2.76654,-0.86608 -1.38934,-0.18369 -1.4304,-0.77518 -3.2743,-0.64758 0,0 -3.52692,-0.1052 -4.53686,-0.2444 -1.00995,-0.13921 -1.4289,0.2118 -1.8841,0.2118 -0.45521,0 -3.24105,-0.0546 -4.00358,0.18979 -0.76253,0.2444 -2.08035,0.34587 -2.44012,0.34587 -0.35977,0 -2.01469,0.44243 -2.70966,0.68549 -0.69497,0.24306 -1.10149,0.0133 -3.20213,0.53343 0,0 -1.64142,0.23869 -2.69129,0.58166 -1.04988,0.34296 -3.16687,0.51823 -4.40816,0.74649 -1.24129,0.22826 -3.12481,0.1081 -3.72322,0.15049 -0.5984,0.0424 -4.01356,0.51393 -4.36099,0.41555 -0.34743,-0.0984 -2.6919,-0.30137 -3.74688,-1.21794 0,0 -0.97027,-1.57035 -1.54891,-2.24029 0,0 -0.63623,-1.04068 -0.62818,-1.73713 0.008,-0.69646 0.38452,-3.95313 0.27317,-4.20206 0,0 0.15084,-1.03415 -0.81173,-3.10765 0,0 -0.0974,-0.46403 -0.0274,-1.08349 0.07,-0.61948 -0.11415,-2.28337 1.03634,-3.05706 1.1505,-0.77369 2.21046,-0.79548 3.11739,-1.86887 0,0 1.24874,-0.62867 1.71709,-1.21376 0.46835,-0.5851 0.0353,-2.07087 -0.65279,-2.62476 -0.68813,-0.55389 0.0498,-0.48912 -0.56577,-1.44613 -0.61562,-0.957 -0.52359,-1.78512 -0.62225,-3.60066 -0.0987,-1.81554 0.2105,-2.27836 1.6873,-3.84611 1.47679,-1.56774 1.92962,-2.27184 2.01453,-2.56746 0.0849,-0.29562 0.44879,-0.59564 0.70724,-1.03785 0.25845,-0.44221 1.68557,-0.5216 2.70714,-1.3211 1.02156,-0.7995 1.71576,-2.39616 2.08116,-3.19204 0.36541,-0.79588 1.4649,-1.39559 2.41231,-3.032257 0.94741,-1.63667 1.30403,-3.02497 1.84193,-3.32043 0.53791,-0.29546 2.43594,-0.74053 3.00013,-1.133 0.56419,-0.39247 1.29788,-0.70581 1.39535,-0.85432 0.0975,-0.14851 0.0178,-0.38967 0.95657,-0.77145 0.93879,-0.38177 2.37449,-1.9544 2.80559,-2.67762 0.4311,-0.72322 0.41366,-0.91989 1.89735,-1.32098 1.48369,-0.4011 2.21336,-0.46869 2.97445,-0.8402 0,0 0.48531,0.0658 0.81418,-0.0454 0.32888,-0.11121 0.46649,-0.21272 0.58649,-0.21272 0.12,0 0.59475,0.13377 0.87207,-0.001 0.27731,-0.13471 0.33015,0.0771 0.90599,-0.1134 0.57583,-0.19051 1.27183,0.0593 1.54596,-0.0652 0.27413,-0.12446 0.82249,0.083 1.36564,0.0403 0,0 0.61956,0.61662 1.08631,0.42158 0.46675,-0.19504 1.02215,-0.66975 2.05774,-1.60857 1.0356,-0.93883 0.98019,-0.24998 2.68603,-1.33325 0,0 0.51596,-0.11919 1.19858,-0.35389 0.68261,-0.2347 1.15582,-0.62898 1.5479,-0.64913 0.39208,-0.0201 1.18644,-0.008 1.45316,-0.23517 0.26672,-0.2273 0.18393,0.11721 1.15921,-0.23182 0.97529,-0.34903 1.78729,0.61706 1.80633,0.85786 0.019,0.24079 0.33131,0.39295 0.50187,1.40683 0.17057,1.01386 0.12773,1.99044 0.79556,2.15876 0.66783,0.16831 0.8277,0.12691 1.27322,-1.33781 0,0 0.95251,-1.16709 1.3613,-2.00644 0.40878,-0.83935 2.47124,-1.33274 3.34646,-1.93997 0.87523,-0.60724 2.24768,-0.48321 2.85604,-0.43867 0.60836,0.0445 1.33602,0.77945 1.69768,0.77293 0.36167,-0.007 1.18981,1.25369 1.67323,1.22435 0.48343,-0.0293 1.09291,0.29472 2.73078,-0.70802 1.63788,-1.00273 2.10172,0.27117 2.67268,0.27117 0,0 0.75652,0.48258 1.82756,0.3887 0,0 0.54756,0.41158 0.96162,0.28473 0.41405,-0.12685 2.25152,0.95925 2.4712,1.03112 0.21967,0.0719 1.11323,0.86349 1.47577,0.90802 0,0 0.41094,0.72952 0.68774,0.72952 0.27681,0 0.43858,0.99678 0.92163,1.18939 0,0 0.24947,0.9189 0.52777,1.22522 0.27831,0.30632 0.16148,1.34453 0.88055,1.00295 0.71908,-0.34159 1.55718,-0.97144 2.25676,-1.09034 0.69959,-0.11889 2.44989,-0.24505 2.83537,-0.15924 0.38548,0.0858 0.81001,-0.0424 0.97928,-0.0999 0.16927,-0.0575 0.83817,0.25651 1.33016,0.0668 0,0 0.81489,0.41548 1.06769,0.34923 0.25279,-0.0662 2.02302,1.77684 2.2948,2.20928 0.27179,0.43244 1.19265,1.46171 1.54281,1.50597 0.35017,0.0443 0.43951,1.48758 0.46163,2.05454 0.0221,0.56696 0.70936,0.70098 1.36165,0.91731 0.65229,0.21634 1.38322,0.68451 1.64578,1.24224 0.26256,0.55772 0.28028,1.07355 1.14692,2.04405 0.86664,0.970497 0.61069,0.555967 0.73944,0.894267 0.12875,0.33829 0.0367,0.58631 0.9291,1.3165 0.89241,0.73019 2.12775,1.97995 2.88303,3.12757 0.75528,1.14761 1.14382,1.83619 1.23571,2.6259 0.0919,0.78971 -1.01904,1.43391 -1.18467,2.15818 -0.16566,0.72427 -0.0811,0.92619 1.05026,1.61742 1.13136,0.69122 0.46056,-0.27238 1.75768,1.22328 0,0 0.26356,0.40626 0.11314,1.5174 0,0 0.0594,0.28274 -0.0709,0.53909 -0.13022,0.25636 0.0199,0.37861 0.16391,0.6561 0.1441,0.27749 -0.1167,0.3498 -0.11109,0.55581 0.006,0.20601 0.068,0.53092 0.1725,0.67874 0.10454,0.14782 -0.18505,0.20591 -0.28765,0.68208 -0.10261,0.47616 -0.61844,0.68795 -0.67392,1.12602 -0.0555,0.43807 -1.24325,0.93486 -1.91839,1.16236 -0.67516,0.2275 -2.42216,0.7338 -3.10655,1.07728 -0.68438,0.34349 -4.58558,1.85157 -5.65892,2.01443 -1.07333,0.16285 -2.72278,0.92275 -3.82633,1.18678 -1.10354,0.26403 -3.2033,0.93316 -3.71094,1.13971 -0.50764,0.20654 -2.24398,0.17495 -3.38472,0.73805 -1.14074,0.5631 -2.46423,0.51388 -2.96391,0.7628 -0.49968,0.24893 -1.51636,0.27475 -1.7809,0.38673 -0.26454,0.11197 -1.61305,0.63865 -2.18588,0.89652 -0.57283,0.25787 -1.43047,0.43359 -1.78468,0.3786 -0.35422,-0.055 -1.713,0.80327 -2.34265,1.02938 -0.62966,0.22613 -2.9769,1.04634 -4.05992,1.8068 -1.08301,0.76046 -2.27613,1.26769 -4.6449,3.60959 -2.36878,2.3419 -2.5449,3.68774 -2.95016,5.20379 -0.40526,1.51606 -0.77681,3.49779 -0.8659,5.07305 -0.0891,1.57526 0.11336,8.40523 0.39584,10.19525 0.28248,1.79001 0.39276,7.23399 0.57057,12.96075 0.17781,5.72677 0.62051,15.5509 0.41932,20.66639 -0.20119,5.11549 0.1043,10.71505 -0.17302,18.13414 0,0 -0.0509,0.43736 -0.51592,5.26618 -0.46503,4.82882 -0.13673,3.84905 -0.60253,6.83235 -0.4658,2.9833 -1.625,5.15669 -1.50451,5.90205 0,0 -0.0244,0.0943 0.14484,0.1283 0.16925,0.034 -0.0555,0.30284 -0.20061,0.37763 -0.14508,0.0748 -0.18431,0.19369 -0.27407,0.22567 -0.0898,0.032 -0.54976,-0.077 -0.56873,-0.14168 -0.019,-0.0647 -0.27809,-0.0113 -0.27809,0.073 0,0.0844 -0.47203,0.0996 -0.57457,0.0425 -0.10254,-0.0571 -0.13369,-0.25269 -0.13369,-0.25269 z"
       id="path373-7" />
  </g>
  <g
     inkscape:label="Layer 1"
     inkscape:groupmode="layer"
     id="layer1"
     style="display:inline" />
</svg>
